<?xml version="1.0" encoding="UTF-8" standalone="no"?>
<svg
   height="36"
   width="36"
   version="1.1"
   id="svg4"
   sodipodi:docname="geräte-analyse.svg"
   inkscape:version="1.1.1 (3bf5ae0d25, 2021-09-20)"
   xmlns:inkscape="http://www.inkscape.org/namespaces/inkscape"
   xmlns:sodipodi="http://sodipodi.sourceforge.net/DTD/sodipodi-0.dtd"
   xmlns="http://www.w3.org/2000/svg"
   xmlns:svg="http://www.w3.org/2000/svg">
  <defs
     id="defs8" />
  <sodipodi:namedview
     id="namedview6"
     pagecolor="#ffffff"
     bordercolor="#666666"
     borderopacity="1.0"
     inkscape:pageshadow="2"
     inkscape:pageopacity="0.0"
     inkscape:pagecheckerboard="0"
     showgrid="false"
     fit-margin-top="0"
     fit-margin-left="0"
     fit-margin-right="0"
     fit-margin-bottom="0"
     inkscape:zoom="16.916667"
     inkscape:cx="17.940887"
     inkscape:cy="18.059113"
     inkscape:window-width="1920"
     inkscape:window-height="1001"
     inkscape:window-x="-9"
     inkscape:window-y="-9"
     inkscape:window-maximized="1"
     inkscape:current-layer="svg4" />
  <path
     d="M 33.8,36 20.65,22.85 q -1.5,1.3 -3.5,2.025 -2,0.725 -4.25,0.725 -5.4,0 -9.15,-3.75 Q 0,18.1 0,12.8 0,7.5 3.75,3.75 7.5,0 12.85,0 q 5.3,0 9.025,3.75 3.725,3.75 3.725,9.05 0,2.15 -0.7,4.15 -0.7,2 -2.1,3.75 L 36,33.8 Z M 12.85,22.6 q 4.05,0 6.9,-2.875 Q 22.6,16.85 22.6,12.8 22.6,8.75 19.75,5.875 16.9,3 12.85,3 8.75,3 5.875,5.875 3,8.75 3,12.8 3,16.85 5.875,19.725 8.75,22.6 12.85,22.6 Z"
     id="path2"
     style="fill:#ffffff" />
</svg>
