<?xml version="1.0" encoding="UTF-8" standalone="no"?>
<svg
   height="17.15"
   width="44"
   version="1.1"
   id="svg4"
   sodipodi:docname="kontaktaufnahme.svg"
   inkscape:version="1.1.1 (3bf5ae0d25, 2021-09-20)"
   xmlns:inkscape="http://www.inkscape.org/namespaces/inkscape"
   xmlns:sodipodi="http://sodipodi.sourceforge.net/DTD/sodipodi-0.dtd"
   xmlns="http://www.w3.org/2000/svg"
   xmlns:svg="http://www.w3.org/2000/svg">
  <defs
     id="defs8" />
  <sodipodi:namedview
     id="namedview6"
     pagecolor="#ffffff"
     bordercolor="#666666"
     borderopacity="1.0"
     inkscape:pageshadow="2"
     inkscape:pageopacity="0.0"
     inkscape:pagecheckerboard="0"
     showgrid="false"
     fit-margin-top="0"
     fit-margin-left="0"
     fit-margin-right="0"
     fit-margin-bottom="0"
     inkscape:zoom="16.916667"
     inkscape:cx="21.960591"
     inkscape:cy="9.6650246"
     inkscape:window-width="1920"
     inkscape:window-height="1001"
     inkscape:window-x="-9"
     inkscape:window-y="-9"
     inkscape:window-maximized="1"
     inkscape:current-layer="svg4" />
  <path
     d="m 18.85,12 -1.8,-1.8 q 0.85,-1 0.85,-2.4 0,-1.4 -0.85,-2.4 l 1.8,-1.8 q 1.65,1.8 1.65,4.2 0,2.4 -1.65,4.2 z m 3.6,3.6 -1.8,-1.8 q 2.4,-2.85 2.4,-6 0,-3.15 -2.4,-6 L 22.45,0 q 1.55,1.8 2.325,3.775 0.775,1.975 0.775,4 0,2.025 -0.775,4.025 -0.775,2 -2.325,3.8 z M 7.5,9.4 Q 5.95,9.4 4.85,8.3 3.75,7.2 3.75,5.65 3.75,4.1 4.85,3 5.95,1.9 7.5,1.9 q 1.55,0 2.65,1.1 1.1,1.1 1.1,2.65 0,1.55 -1.1,2.65 Q 9.05,9.4 7.5,9.4 Z M 0,17.15 V 16.5 Q 0,15.45 0.575,14.575 1.15,13.7 2.15,13.25 3.4,12.7 4.725,12.425 6.05,12.15 7.5,12.15 q 1.45,0 2.775,0.275 1.325,0.275 2.575,0.825 1,0.45 1.575,1.325 Q 15,15.45 15,16.5 v 0.65 z M 36.5,9.4 q -1.55,0 -2.65,-1.1 -1.1,-1.1 -1.1,-2.65 0,-1.55 1.1,-2.65 1.1,-1.1 2.65,-1.1 1.55,0 2.65,1.1 1.1,1.1 1.1,2.65 0,1.55 -1.1,2.65 -1.1,1.1 -2.65,1.1 z M 29,17.15 V 16.5 Q 29,15.45 29.575,14.575 30.15,13.7 31.15,13.25 32.4,12.7 33.725,12.425 35.05,12.15 36.5,12.15 q 1.45,0 2.775,0.275 1.325,0.275 2.575,0.825 1,0.45 1.575,1.325 Q 44,15.45 44,16.5 v 0.65 z"
     id="path2"
     style="fill:#ffffff" />
</svg>
