<?xml version="1.0" encoding="UTF-8" standalone="no"?>
<svg
   height="40"
   width="32"
   version="1.1"
   id="svg4"
   sodipodi:docname="kostenschätzung.svg"
   inkscape:version="1.1.1 (3bf5ae0d25, 2021-09-20)"
   xmlns:inkscape="http://www.inkscape.org/namespaces/inkscape"
   xmlns:sodipodi="http://sodipodi.sourceforge.net/DTD/sodipodi-0.dtd"
   xmlns="http://www.w3.org/2000/svg"
   xmlns:svg="http://www.w3.org/2000/svg">
  <defs
     id="defs8" />
  <sodipodi:namedview
     id="namedview6"
     pagecolor="#ffffff"
     bordercolor="#666666"
     borderopacity="1.0"
     inkscape:pageshadow="2"
     inkscape:pageopacity="0.0"
     inkscape:pagecheckerboard="0"
     showgrid="false"
     fit-margin-top="0"
     fit-margin-left="0"
     fit-margin-right="0"
     fit-margin-bottom="0"
     inkscape:zoom="16.916667"
     inkscape:cx="15.990148"
     inkscape:cy="20.009852"
     inkscape:window-width="1920"
     inkscape:window-height="1001"
     inkscape:window-x="-9"
     inkscape:window-y="-9"
     inkscape:window-maximized="1"
     inkscape:current-layer="svg4" />
  <path
     d="m 14.5,32 h 3 v -2 h 3 q 0.65,0 1.075,-0.425 Q 22,29.15 22,28.5 V 22 Q 22,21.35 21.575,20.925 21.15,20.5 20.5,20.5 H 13 V 17 h 9 v -3 h -4.5 v -2 h -3 v 2 h -3 Q 10.85,14 10.425,14.425 10,14.85 10,15.5 V 22 q 0,0.65 0.425,1.075 Q 10.85,23.5 11.5,23.5 H 19 V 27 h -9 v 3 h 4.5 z M 3,40 Q 1.8,40 0.9,39.1 0,38.2 0,37 V 3 Q 0,1.8 0.9,0.9 1.8,0 3,0 H 20.05 L 32,11.95 V 37 q 0,1.2 -0.9,2.1 Q 30.2,40 29,40 Z M 3,37 H 29 V 13.3 L 18.7,3 H 3 Z m 0,0 V 3 Z"
     id="path2"
     style="fill:#ffffff" />
</svg>
