<?xml version="1.0" encoding="UTF-8" standalone="no"?>
<svg
   height="36.049999"
   width="37.049999"
   version="1.1"
   id="svg4"
   sodipodi:docname="reperatur-angebot.svg"
   inkscape:version="1.1.1 (3bf5ae0d25, 2021-09-20)"
   xmlns:inkscape="http://www.inkscape.org/namespaces/inkscape"
   xmlns:sodipodi="http://sodipodi.sourceforge.net/DTD/sodipodi-0.dtd"
   xmlns="http://www.w3.org/2000/svg"
   xmlns:svg="http://www.w3.org/2000/svg">
  <defs
     id="defs8" />
  <sodipodi:namedview
     id="namedview6"
     pagecolor="#ffffff"
     bordercolor="#666666"
     borderopacity="1.0"
     inkscape:pageshadow="2"
     inkscape:pageopacity="0.0"
     inkscape:pagecheckerboard="0"
     showgrid="false"
     fit-margin-top="0"
     fit-margin-left="0"
     fit-margin-right="0"
     fit-margin-bottom="0"
     inkscape:zoom="16.916667"
     inkscape:cx="18.945813"
     inkscape:cy="18.059113"
     inkscape:window-width="1920"
     inkscape:window-height="1001"
     inkscape:window-x="-9"
     inkscape:window-y="-9"
     inkscape:window-maximized="1"
     inkscape:current-layer="svg4" />
  <path
     d="M 33.4,36.05 20.85,23.5 23.7,20.65 36.25,33.2 Z M 4.35,36.05 1.5,33.2 16,18.7 10.65,13.35 9.5,14.5 7.3,12.3 v 4.25 L 6.1,17.75 0,11.65 1.2,10.45 H 5.5 L 3.1,8.05 9.65,1.5 q 0.85,-0.85 1.85,-1.15 1,-0.3 2.2,-0.3 1.2,0 2.2,0.425 1,0.425 1.85,1.275 l -5.35,5.35 2.4,2.4 -1.2,1.2 5.2,5.2 6.1,-6.1 Q 24.5,9.15 24.275,8.3 24.05,7.45 24.05,6.5 24.05,3.85 25.975,1.925 27.9,0 30.55,0 31.3,0 31.825,0.15 32.35,0.3 32.7,0.55 L 28.45,4.8 32.2,8.55 36.45,4.3 q 0.25,0.4 0.425,0.975 0.175,0.575 0.175,1.325 0,2.65 -1.925,4.575 Q 33.2,13.1 30.55,13.1 29.65,13.1 29,12.975 28.35,12.85 27.8,12.6 Z"
     id="path2"
     style="fill:#ffffff" />
</svg>
