<?xml version="1.0" encoding="UTF-8" standalone="no"?>
<svg
   height="40"
   width="40"
   version="1.1"
   id="svg4"
   sodipodi:docname="reperatur.svg"
   inkscape:version="1.1.1 (3bf5ae0d25, 2021-09-20)"
   xmlns:inkscape="http://www.inkscape.org/namespaces/inkscape"
   xmlns:sodipodi="http://sodipodi.sourceforge.net/DTD/sodipodi-0.dtd"
   xmlns="http://www.w3.org/2000/svg"
   xmlns:svg="http://www.w3.org/2000/svg">
  <defs
     id="defs8" />
  <sodipodi:namedview
     id="namedview6"
     pagecolor="#ffffff"
     bordercolor="#666666"
     borderopacity="1.0"
     inkscape:pageshadow="2"
     inkscape:pageopacity="0.0"
     inkscape:pagecheckerboard="0"
     showgrid="false"
     fit-margin-top="0"
     fit-margin-left="0"
     fit-margin-right="0"
     fit-margin-bottom="0"
     inkscape:zoom="16.916667"
     inkscape:cx="19.950739"
     inkscape:cy="20.009852"
     inkscape:window-width="1920"
     inkscape:window-height="1001"
     inkscape:window-x="-9"
     inkscape:window-y="-9"
     inkscape:window-maximized="1"
     inkscape:current-layer="svg4" />
  <path
     d="M 17.05,29.1 31.2,14.95 28.9,12.7 17.05,24.55 l -6,-6 L 8.8,20.8 Z M 20,40 Q 15.9,40 12.25,38.425 8.6,36.85 5.875,34.125 3.15,31.4 1.575,27.75 0,24.1 0,20 0,15.85 1.575,12.2 3.15,8.55 5.875,5.85 8.6,3.15 12.25,1.575 15.9,0 20,0 q 4.15,0 7.8,1.575 3.65,1.575 6.35,4.275 2.7,2.7 4.275,6.35 Q 40,15.85 40,20 q 0,4.1 -1.575,7.75 -1.575,3.65 -4.275,6.375 -2.7,2.725 -6.35,4.3 Q 24.15,40 20,40 Z m 0,-3 Q 27.1,37 32.05,32.025 37,27.05 37,20 37,12.9 32.05,7.95 27.1,3 20,3 12.95,3 7.975,7.95 3,12.9 3,20 3,27.05 7.975,32.025 12.95,37 20,37 Z m 0,-17 z"
     id="path2"
     style="fill:#ffffff" />
</svg>
