<?xml version="1.0" encoding="UTF-8" standalone="no"?>
<svg
   height="39.950001"
   width="44"
   version="1.1"
   id="svg4"
   sodipodi:docname="übergabe.svg"
   inkscape:version="1.1.1 (3bf5ae0d25, 2021-09-20)"
   xmlns:inkscape="http://www.inkscape.org/namespaces/inkscape"
   xmlns:sodipodi="http://sodipodi.sourceforge.net/DTD/sodipodi-0.dtd"
   xmlns="http://www.w3.org/2000/svg"
   xmlns:svg="http://www.w3.org/2000/svg">
  <defs
     id="defs8" />
  <sodipodi:namedview
     id="namedview6"
     pagecolor="#ffffff"
     bordercolor="#666666"
     borderopacity="1.0"
     inkscape:pageshadow="2"
     inkscape:pageopacity="0.0"
     inkscape:pagecheckerboard="0"
     showgrid="false"
     fit-margin-top="0"
     fit-margin-left="0"
     fit-margin-right="0"
     fit-margin-bottom="0"
     inkscape:zoom="16.916667"
     inkscape:cx="21.960591"
     inkscape:cy="19.950739"
     inkscape:window-width="1920"
     inkscape:window-height="1001"
     inkscape:window-x="-9"
     inkscape:window-y="-9"
     inkscape:window-maximized="1"
     inkscape:current-layer="svg4" />
  <path
     d="m 21.75,36.95 q 0.25,0 0.575,-0.125 Q 22.65,36.7 22.85,36.5 L 39.7,19.6 Q 40.35,18.95 40.675,18.125 41,17.3 41,16.45 41,15.6 40.675,14.75 40.35,13.9 39.7,13.25 l -9,-9 Q 30.05,3.6 29.2,3.275 28.35,2.95 27.5,2.95 26.65,2.95 25.825,3.275 25,3.6 24.35,4.25 l -0.9,0.9 4.05,4.1 q 0.65,0.7 1.15,1.625 0.5,0.925 0.5,2.025 0,1.9 -1.475,3.35 Q 26.2,17.7 24.3,17.7 23.05,17.7 22.225,17.325 21.4,16.95 20.7,16.25 L 17.05,12.6 8,21.65 q -0.25,0.25 -0.35,0.525 -0.1,0.275 -0.1,0.575 0,0.65 0.425,1.075 0.425,0.425 1.075,0.425 0.3,0 0.575,-0.15 Q 9.9,23.95 10.1,23.75 l 6.9,-6.9 2.1,2.1 -6.85,6.85 q -0.25,0.25 -0.35,0.55 -0.1,0.3 -0.1,0.6 0,0.6 0.45,1.05 0.45,0.45 1.05,0.45 0.3,0 0.575,-0.125 Q 14.15,28.2 14.35,28 l 6.9,-6.9 2.1,2.1 -6.85,6.85 q -0.2,0.2 -0.325,0.525 -0.125,0.325 -0.125,0.625 0,0.6 0.45,1.05 0.45,0.45 1.05,0.45 0.3,0 0.55,-0.1 0.25,-0.1 0.5,-0.35 l 6.9,-6.9 2.1,2.1 -6.9,6.9 q -0.25,0.25 -0.35,0.55 -0.1,0.3 -0.1,0.55 0,0.7 0.4,1.1 0.4,0.4 1.1,0.4 z m 0,3 Q 20.1,39.95 18.8,38.725 17.5,37.5 17.25,35.7 15.55,35.45 14.4,34.3 13.25,33.15 13,31.45 11.3,31.2 10.175,30.025 9.05,28.85 8.8,27.2 6.95,26.95 5.75,25.7 4.55,24.45 4.55,22.7 4.55,21.85 4.875,21 5.2,20.15 5.85,19.5 l 11.2,-11.2 5.5,5.5 q 0.4,0.4 0.875,0.625 0.475,0.225 0.925,0.225 0.65,0 1.225,-0.575 0.575,-0.575 0.575,-1.225 0,-0.3 -0.175,-0.675 Q 25.8,11.8 25.4,11.4 L 18.25,4.25 Q 17.6,3.6 16.75,3.275 15.9,2.95 15.05,2.95 14.2,2.95 13.375,3.275 12.55,3.6 11.9,4.25 l -7.6,7.6 Q 3.6,12.55 3.325,13.325 3.05,14.1 3,15.05 2.95,16.05 3.375,16.975 3.8,17.9 4.4,18.65 L 2.25,20.8 Q 1.25,19.7 0.625,18.15 0,16.6 0,15 0,13.5 0.575,12.125 1.15,10.75 2.2,9.7 L 9.75,2.15 q 1.1,-1.1 2.5,-1.625 Q 13.65,0 15.1,0 16.55,0 17.925,0.525 19.3,1.05 20.4,2.15 l 0.9,0.9 0.9,-0.9 Q 23.3,1.05 24.7,0.525 26.1,0 27.55,0 29,0 30.375,0.525 31.75,1.05 32.85,2.15 l 8.95,8.95 q 1.1,1.1 1.65,2.5 Q 44,15 44,16.45 44,17.9 43.45,19.275 42.9,20.65 41.8,21.75 L 24.95,38.6 q -0.65,0.65 -1.475,1 -0.825,0.35 -1.725,0.35 z m -4.9,-27.3 z"
     id="path2"
     style="fill:#ffffff" />
</svg>
