<?xml version="1.0" encoding="UTF-8" standalone="no"?>
<!-- Created with Inkscape (http://www.inkscape.org/) -->

<svg
        width="100"
        height="100"
        viewBox="0 0 26.458334 26.458334"
        version="1.1"
        id="svg5"
        inkscape:version="1.1.1 (3bf5ae0d25, 2021-09-20)"
        sodipodi:docname="Datenschutz.svg"
        xmlns:inkscape="http://www.inkscape.org/namespaces/inkscape"
        xmlns:sodipodi="http://sodipodi.sourceforge.net/DTD/sodipodi-0.dtd"
        xmlns="http://www.w3.org/2000/svg"
        xmlns:rdf="http://www.w3.org/1999/02/22-rdf-syntax-ns#"
        xmlns:cc="http://creativecommons.org/ns#"
        xmlns:dc="http://purl.org/dc/elements/1.1/">
    <title
            id="title923">datenschutz Icons
    </title>
    <sodipodi:namedview
            id="namedview7"
            pagecolor="#ffffff"
            bordercolor="#666666"
            borderopacity="1.0"
            inkscape:pageshadow="2"
            inkscape:pageopacity="0.0"
            inkscape:pagecheckerboard="0"
            inkscape:document-units="mm"
            showgrid="false"
            fit-margin-top="0"
            fit-margin-left="0"
            fit-margin-right="0"
            fit-margin-bottom="0"
            inkscape:zoom="2.8934904"
            inkscape:cx="60.307786"
            inkscape:cy="60.307786"
            inkscape:window-width="1920"
            inkscape:window-height="1001"
            inkscape:window-x="-9"
            inkscape:window-y="-9"
            inkscape:window-maximized="1"
            inkscape:current-layer="layer1"
            units="px"/>
    <defs
            id="defs2"/>
    <g
            inkscape:label="Ebene 1"
            inkscape:groupmode="layer"
            id="layer1"
            transform="translate(21.372084,-11.337069)">
        <path
                style="fill:#000000;stroke-width:0.0515303"
                d="m -8.5469202,37.636024 c -1.8546838,-0.621476 -3.5972838,-2.120251 -4.4119678,-3.794656 l -0.144166,-0.2963 h -4.111688 -4.111688 V 22.466059 11.387048 H -8.1346761 5.0570733 v 11.079011 11.079009 l -4.10953375,1.95e-4 -4.10954605,1.95e-4 -0.1791026,0.34764 c -0.846771,1.643522 -2.3454782,2.968848 -4.1222823,3.645401 -0.6303355,0.24001 -0.6524114,0.241997 -1.0835288,0.09753 z m 1.1639051,-1.821649 c 2.5058049,-1.25398 3.3987122,-3.109169 3.3606732,-6.982436 l -0.015708,-1.595543 -2.0096774,-0.915459 c -2.3973255,-1.09204 -1.7710934,-1.092433 -4.1739467,0.0026 l -2.009685,0.915866 -0.0143,1.722859 c -0.03146,3.787698 0.87845,5.621091 3.4139528,6.878803 0.7008734,0.347666 0.7005689,0.347671 1.4486867,-0.0267 z m -2.3488268,-3.634589 -1.3129931,-1.31375 0.539621,-0.541466 0.5396219,-0.541466 0.6971229,0.695785 c 0.8479278,0.846308 0.6178427,0.913771 1.7779244,-0.52129 0.5384889,-0.666132 1.0179833,-1.246593 1.0655321,-1.289914 0.077076,-0.07022 1.2275633,0.76466 1.2275633,0.890821 0,0.02605 -3.1881701,3.935031 -3.2094058,3.935031 -0.00608,0 -0.6028412,-0.591186 -1.3249867,-1.313751 z m -3.9379831,-0.425395 c -0.108492,-0.749806 -0.131399,-1.325013 -0.131847,-3.31082 l -5.07e-4,-2.190037 2.78345,-1.262492 c 1.5309021,-0.694371 2.8142699,-1.269331 2.8519193,-1.27769 0.066118,-0.01469 5.5007723,2.426227 5.6409227,2.533587 0.1004552,0.0769 0.05248,4.833164 -0.054185,5.378626 L -2.65313,31.999161 H 0.42899554 3.5111214 V 24.011967 16.024773 H -8.1347248 -19.780564 v 7.987194 7.987194 h 3.073056 3.073055 l -0.03542,-0.24477 z M -18.492264,21.435452 V 20.662498 H -8.1346761 2.2229075 v 0.772954 0.772955 H -8.1346761 -18.492264 Z m 0,-3.091816 V 17.570681 H -8.1346761 2.2229075 v 0.772955 0.772954 H -8.1346761 -18.492264 Z M 3.5111702,13.705911 V 12.932956 H -8.1346761 -19.780521 v 0.772955 0.772954 H -8.1346761 3.5111702 Z"
                id="path3538"/>
    </g>
    <metadata
            id="metadata921">
        <rdf:RDF>
            <cc:Work
                    rdf:about="">
                <dc:creator>
                    <cc:Agent>
                        <dc:title>https://www.flaticon.com/de/kostenlose-icons/datenschutz</dc:title>
                    </cc:Agent>
                </dc:creator>
                <dc:rights>
                    <cc:Agent>
                        <dc:title>https://www.flaticon.com/de/kostenlose-icons/datenschutz</dc:title>
                    </cc:Agent>
                </dc:rights>
                <dc:publisher>
                    <cc:Agent>
                        <dc:title>https://www.flaticon.com/de/kostenlose-icons/datenschutz</dc:title>
                    </cc:Agent>
                </dc:publisher>
                <dc:identifier>https://www.flaticon.com/de/kostenlose-icons/datenschutz</dc:identifier>
                <dc:source>https://www.flaticon.com/de/kostenlose-icons/datenschutz</dc:source>
                <dc:relation>https://www.flaticon.com/de/kostenlose-icons/datenschutz</dc:relation>
                <dc:language>Deutsch</dc:language>
                <dc:subject>
                    <rdf:Bag>
                        <rdf:li>datenschutz Icons</rdf:li>
                    </rdf:Bag>
                </dc:subject>
                <dc:coverage>datenschutz Icons</dc:coverage>
                <dc:title>datenschutz Icons</dc:title>
                <dc:date>17.03.2022</dc:date>
                <cc:license
                        rdf:resource="https://www.flaticon.com/de/kostenlose-icons/datenschutz"/>
            </cc:Work>
            <cc:License
                    rdf:about="http://creativecommons.org/licenses/by/4.0/">
                <cc:permits
                        rdf:resource="http://creativecommons.org/ns#Reproduction"/>
                <cc:permits
                        rdf:resource="http://creativecommons.org/ns#Distribution"/>
                <cc:requires
                        rdf:resource="http://creativecommons.org/ns#Notice"/>
                <cc:requires
                        rdf:resource="http://creativecommons.org/ns#Attribution"/>
                <cc:permits
                        rdf:resource="http://creativecommons.org/ns#DerivativeWorks"/>
            </cc:License>
        </rdf:RDF>
    </metadata>
</svg>
