<?xml version="1.0" encoding="UTF-8" standalone="no"?>
<!-- Created with Inkscape (http://www.inkscape.org/) -->

<svg
        width="100"
        height="100"
        viewBox="0 0 26.458333 26.458332"
        version="1.1"
        id="svg5"
        inkscape:version="1.1.1 (3bf5ae0d25, 2021-09-20)"
        sodipodi:docname="Fingerabdruck.svg"
        xmlns:inkscape="http://www.inkscape.org/namespaces/inkscape"
        xmlns:sodipodi="http://sodipodi.sourceforge.net/DTD/sodipodi-0.dtd"
        xmlns="http://www.w3.org/2000/svg"
        xmlns:rdf="http://www.w3.org/1999/02/22-rdf-syntax-ns#"
        xmlns:cc="http://creativecommons.org/ns#"
        xmlns:dc="http://purl.org/dc/elements/1.1/">
    <title
            id="title931">Finger
    </title>
    <sodipodi:namedview
            id="namedview7"
            pagecolor="#ffffff"
            bordercolor="#666666"
            borderopacity="1.0"
            inkscape:pageshadow="2"
            inkscape:pageopacity="0.0"
            inkscape:pagecheckerboard="0"
            inkscape:document-units="mm"
            showgrid="false"
            fit-margin-top="0"
            fit-margin-left="0"
            fit-margin-right="0"
            fit-margin-bottom="0"
            inkscape:zoom="5.7869808"
            inkscape:cx="35.337943"
            inkscape:cy="59.357377"
            inkscape:window-width="1920"
            inkscape:window-height="1001"
            inkscape:window-x="-9"
            inkscape:window-y="-9"
            inkscape:window-maximized="1"
            inkscape:current-layer="layer1"
            units="px"/>
    <defs
            id="defs2"/>
    <g
            inkscape:label="Ebene 1"
            inkscape:groupmode="layer"
            id="layer1"
            transform="translate(3.1117107,-14.332607)">
        <path
                style="fill:#000000;stroke-width:0.0488499"
                d="M 7.4498465,40.271948 C 6.5490364,39.815552 4.2112756,36.3018 3.5581697,34.422593 0.98453976,27.017388 9.8015019,21.108442 15.231413,26.599425 c 2.056358,2.079486 2.977684,6.063875 1.402446,6.065042 -0.536619,3.71e-4 -0.743376,-0.29007 -0.80085,-1.125095 -0.377656,-5.486799 -7.0009981,-7.505374 -10.1249996,-3.085762 -1.9785058,2.799047 -1.1394879,6.393544 2.414039,10.34216 0.7783029,0.864838 0.2801911,1.958709 -0.6722019,1.476178 z m 4.7499405,0.02211 C 8.9045274,39.398709 5.6092635,34.612791 6.1110524,31.451006 c 0.8930448,-5.627101 8.0911006,-5.025995 8.3617676,0.698285 0.161617,3.418029 4.329547,3.453492 4.329547,0.03684 0,-5.225143 -4.177881,-9.523299 -8.9605751,-9.218539 -6.9592391,0.44345 -10.56599374,8.628369 -6.3545948,14.420673 0.4258605,0.58572 0.4381027,0.928085 0.045968,1.285728 C 2.9968469,39.163139 2.4863557,38.832944 1.66955,37.468574 -3.6162145,28.639364 5.5762605,17.89697 14.548206,22.418483 c 6.399855,3.225279 8.065919,13.586837 2.221766,13.817582 -2.228223,0.08798 -3.733358,-1.471212 -3.850326,-3.988607 -0.1947,-4.190303 -5.3005792,-4.213955 -5.2978674,-0.02455 0.00151,2.416581 2.9292324,6.232129 5.0425534,6.571818 0.564547,0.09075 0.765638,0.298369 0.765638,0.790514 0,0.639872 -0.47552,0.913856 -1.230189,0.708807 z m 2.910487,-1.495963 c -2.835508,-0.392433 -5.5296062,-3.734758 -5.6758042,-7.041459 -0.069486,-1.571638 1.4267762,-1.632792 1.5434562,-0.06308 0.208466,2.804521 2.291582,5.380172 4.504034,5.568975 0.713002,0.06084 1.064043,0.553348 0.794726,1.114986 -0.186184,0.388269 -0.522826,0.509654 -1.166412,0.420582 z M -0.2362578,25.307668 C -0.75516804,24.988224 -0.76668722,24.546544 -0.27426836,23.849978 4.4019517,17.235043 13.712655,16.445353 19.361055,22.184601 c 1.749621,1.777763 2.148865,2.71866 1.334076,3.144019 -0.425334,0.222045 -0.729877,0.06143 -1.276684,-0.673316 -4.733164,-6.359976 -13.6388358,-6.361378 -18.3460512,-0.0028 -0.55645086,0.751651 -0.8849049,0.916112 -1.30865057,0.655252 z M 1.1780044,20.222161 C 0.57563534,20.007019 0.50380959,19.3556 1.0263757,18.846969 5.2134928,14.771501 12.278491,14.100218 17.410788,17.290197 c 2.218139,1.378685 2.910419,2.331644 2.066266,2.844324 -0.427825,0.259829 -0.646707,0.196995 -1.33535,-0.383335 -4.635037,-3.906018 -11.174731,-3.912555 -15.7725359,-0.01576 -0.650498,0.551318 -0.8183344,0.6199 -1.1911637,0.48674 z"
                id="path1810"/>
    </g>
    <metadata
            id="metadata929">
        <rdf:RDF>
            <cc:Work
                    rdf:about="">
                <dc:title>Finger</dc:title>
                <dc:date>17.03.2022</dc:date>
                <dc:subject>
                    <rdf:Bag>
                        <rdf:li>Fingerabdruck</rdf:li>
                    </rdf:Bag>
                </dc:subject>
                <dc:creator>
                    <cc:Agent>
                        <dc:title>https://www.flaticon.com/de/kostenlose-icons/fingerabdruck</dc:title>
                    </cc:Agent>
                </dc:creator>
                <dc:rights>
                    <cc:Agent>
                        <dc:title>https://www.flaticon.com/de/kostenlose-icons/fingerabdruck</dc:title>
                    </cc:Agent>
                </dc:rights>
                <dc:publisher>
                    <cc:Agent>
                        <dc:title>https://www.flaticon.com/de/kostenlose-icons/fingerabdruck</dc:title>
                    </cc:Agent>
                </dc:publisher>
                <dc:identifier>https://www.flaticon.com/de/kostenlose-icons/fingerabdruck</dc:identifier>
                <dc:source>https://www.flaticon.com/de/kostenlose-icons/fingerabdruck</dc:source>
                <dc:relation>https://www.flaticon.com/de/kostenlose-icons/fingerabdruck</dc:relation>
                <dc:language>Keine</dc:language>
                <dc:coverage>100x100px</dc:coverage>
                <dc:description>Kostenlos für den persönlichen und kommerziellen Gebrauch mit Namensnennung.
                </dc:description>
                <dc:contributor>
                    <cc:Agent>
                        <dc:title>flaticon</dc:title>
                    </cc:Agent>
                </dc:contributor>
                <cc:license
                        rdf:resource="http://creativecommons.org/licenses/by/4.0/"/>
            </cc:Work>
            <cc:License
                    rdf:about="http://creativecommons.org/licenses/by/4.0/">
                <cc:permits
                        rdf:resource="http://creativecommons.org/ns#Reproduction"/>
                <cc:permits
                        rdf:resource="http://creativecommons.org/ns#Distribution"/>
                <cc:requires
                        rdf:resource="http://creativecommons.org/ns#Notice"/>
                <cc:requires
                        rdf:resource="http://creativecommons.org/ns#Attribution"/>
                <cc:permits
                        rdf:resource="http://creativecommons.org/ns#DerivativeWorks"/>
            </cc:License>
        </rdf:RDF>
    </metadata>
</svg>
