<?xml version="1.0" encoding="UTF-8" standalone="no"?>
<!-- Created with Inkscape (http://www.inkscape.org/) -->

<svg
        width="100"
        height="100"
        viewBox="0 0 26.458333 26.458332"
        version="1.1"
        id="svg5"
        inkscape:version="1.1.1 (3bf5ae0d25, 2021-09-20)"
        sodipodi:docname="Formular.svg"
        xmlns:inkscape="http://www.inkscape.org/namespaces/inkscape"
        xmlns:sodipodi="http://sodipodi.sourceforge.net/DTD/sodipodi-0.dtd"
        xmlns="http://www.w3.org/2000/svg"
        xmlns:rdf="http://www.w3.org/1999/02/22-rdf-syntax-ns#"
        xmlns:cc="http://creativecommons.org/ns#"
        xmlns:dc="http://purl.org/dc/elements/1.1/">
    <title
            id="title472">Formular
    </title>
    <sodipodi:namedview
            id="namedview7"
            pagecolor="#ffffff"
            bordercolor="#666666"
            borderopacity="1.0"
            inkscape:pageshadow="2"
            inkscape:pageopacity="0.0"
            inkscape:pagecheckerboard="0"
            inkscape:document-units="mm"
            showgrid="false"
            fit-margin-top="0"
            fit-margin-left="0"
            fit-margin-right="0"
            fit-margin-bottom="0"
            inkscape:zoom="8.1840269"
            inkscape:cx="46.248626"
            inkscape:cy="29.142133"
            inkscape:window-width="1920"
            inkscape:window-height="1001"
            inkscape:window-x="-9"
            inkscape:window-y="-9"
            inkscape:window-maximized="1"
            inkscape:current-layer="layer1"
            units="px"/>
    <defs
            id="defs2"/>
    <g
            inkscape:label="Ebene 1"
            inkscape:groupmode="layer"
            id="layer1"
            transform="translate(-3.6453625,-25.347298)">
        <path
                style="fill:#000000;stroke-width:0.0613155"
                d="M 8.6253502,51.533964 C 7.2239437,50.973224 6.7986594,50.105588 6.7552264,48.710878 l -0.030658,-0.984477 -0.8584181,-0.03099 c -0.9518922,-0.03436 -1.1010679,-0.08185 -1.4284662,-0.454731 -0.4163439,-0.47419 -0.4163439,-1.19095 0,-1.665137 0.3273983,-0.372888 0.476574,-0.420376 1.4284662,-0.454732 l 0.8584181,-0.03099 0.016546,-1.302953 0.016547,-1.302957 H 6.0124417 c -0.9004217,0 -1.1711725,-0.07214 -1.4988697,-0.399336 -0.6186307,-0.617688 -0.4626719,-1.652587 0.3089236,-2.049923 0.272431,-0.140288 0.3892321,-0.158875 1.1184624,-0.177991 l 0.8142641,-0.02135 V 38.553713 37.272102 L 6.065423,37.271754 C 4.9859838,37.271221 4.5603216,37.091965 4.2739744,36.517339 4.0117864,35.991196 4.1002408,35.448571 4.5159705,35.032843 4.8409702,34.707842 5.1133363,34.635529 6.0124417,34.635529 H 6.7576624 L 6.7411164,33.33258 6.7245694,32.029625 5.8661513,31.998645 c -0.9518922,-0.03436 -1.1010679,-0.08185 -1.4284662,-0.454733 -0.4163439,-0.474187 -0.4163439,-1.190948 0,-1.665135 0.3273983,-0.372888 0.476574,-0.420376 1.4284662,-0.454734 l 0.8584181,-0.03098 c 0.020439,-0.656317 0.040877,-1.312635 0.061316,-1.968952 L 7.014336,26.96212 C 7.293661,26.397238 7.701727,25.996762 8.2744237,25.725465 L 8.686668,25.530176 h 8.522858 8.522859 c 0.895073,0.399954 1.683837,1.228268 1.871106,2.034226 0.04206,0.197639 0.05742,3.906546 0.04631,11.179271 -0.01615,10.567084 -0.02005,10.891528 -0.134095,11.159426 -0.338191,0.794399 -0.939251,1.366918 -1.673,1.593549 -0.391808,0.121016 -0.551666,0.123211 -8.685621,0.119183 -6.514099,-0.0032 -8.2176916,-0.06923 -8.53173,-0.08187 z M 25.027256,38.559496 V 28.074307 l -7.833059,0.01556 -7.8330605,0.01556 -0.015735,10.392982 c -0.00865,5.71614 -0.00262,10.427472 0.013395,10.469629 0.023105,0.06076 1.6494955,0.07664 7.8487985,0.07664 h 7.819656 z m -11.739529,4.890147 c 0.108937,-0.940724 0.480085,-1.721706 1.131928,-2.38184 0.502676,-0.509069 0.847899,-0.735868 1.456204,-0.95667 1.4948,-0.542584 3.217451,-0.09939 4.274463,1.099708 0.503321,0.570977 0.952739,1.654816 0.952739,2.297671 V 43.77155 H 17.176756 13.25045 Z m 3.277986,-4.975381 c -0.780877,-0.218452 -1.376397,-0.708684 -1.721045,-1.416764 -0.302912,-0.749899 -0.317034,-1.54905 -0.01511,-2.190394 0.271488,-0.5731 0.67176,-0.980806 1.237108,-1.260087 0.776107,-0.332962 1.59743,-0.332429 2.246534,-0.01805 1.606456,0.781921 1.98948,2.844095 0.76812,4.135503 -0.651923,0.689311 -1.65893,0.989457 -2.515612,0.749798 z"
                id="path1123-4"
                sodipodi:nodetypes="cccsssscccssssccccssscccssssccssccccssssccsccccsccssssscccssccccsscc"/>
    </g>
    <metadata
            id="metadata468">
        <rdf:RDF>
            <cc:Work
                    rdf:about="">
                <cc:license
                        rdf:resource="http://creativecommons.org/licenses/by/4.0/"/>
                <dc:title>Formular</dc:title>
                <dc:date>https://www.flaticon.com/de/kostenlose-icons</dc:date>
                <dc:creator>
                    <cc:Agent>
                        <dc:title>https://www.flaticon.com/de/kostenlose-icons</dc:title>
                    </cc:Agent>
                </dc:creator>
                <dc:rights>
                    <cc:Agent>
                        <dc:title>https://www.flaticon.com/de/kostenlose-icons</dc:title>
                    </cc:Agent>
                </dc:rights>
                <dc:publisher>
                    <cc:Agent>
                        <dc:title>https://www.flaticon.com/de/kostenlose-icons</dc:title>
                    </cc:Agent>
                </dc:publisher>
                <dc:identifier>https://www.flaticon.com/de/kostenlose-icons</dc:identifier>
                <dc:source>https://www.flaticon.com/de/kostenlose-icons</dc:source>
                <dc:language>Deutsch</dc:language>
                <dc:relation>https://www.flaticon.com/de/kostenlose-icons</dc:relation>
                <dc:contributor>
                    <cc:Agent>
                        <dc:title>https://www.flaticon.com/de/kostenlose-icons</dc:title>
                    </cc:Agent>
                </dc:contributor>
            </cc:Work>
            <cc:License
                    rdf:about="http://creativecommons.org/licenses/by/4.0/">
                <cc:permits
                        rdf:resource="http://creativecommons.org/ns#Reproduction"/>
                <cc:permits
                        rdf:resource="http://creativecommons.org/ns#Distribution"/>
                <cc:requires
                        rdf:resource="http://creativecommons.org/ns#Notice"/>
                <cc:requires
                        rdf:resource="http://creativecommons.org/ns#Attribution"/>
                <cc:permits
                        rdf:resource="http://creativecommons.org/ns#DerivativeWorks"/>
            </cc:License>
        </rdf:RDF>
    </metadata>
</svg>
