<?xml version="1.0" encoding="UTF-8"?>
<svg width="100" height="100" version="1.1" viewBox="0 0 26.458 26.458" xmlns="http://www.w3.org/2000/svg" xmlns:cc="http://creativecommons.org/ns#" xmlns:dc="http://purl.org/dc/elements/1.1/" xmlns:rdf="http://www.w3.org/1999/02/22-rdf-syntax-ns#">
  <title>Formular</title>
  <g transform="translate(-3.6454 -25.347)">
    <path d="m8.6254 51.534c-1.4014-0.56074-1.8267-1.4284-1.8701-2.8231l-0.030658-0.98448-0.85842-0.03099c-0.95189-0.03436-1.1011-0.08185-1.4285-0.45473-0.41634-0.47419-0.41634-1.191 0-1.6651 0.3274-0.37289 0.47657-0.42038 1.4285-0.45473l0.85842-0.03099 0.016546-1.303 0.016547-1.303h-0.74522c-0.90042 0-1.1712-0.07214-1.4989-0.39934-0.61863-0.61769-0.46267-1.6526 0.30892-2.0499 0.27243-0.14029 0.38923-0.15888 1.1185-0.17799l0.81426-0.02135v-2.5632l-0.6898-3.48e-4c-1.0794-5.33e-4 -1.5051-0.17979-1.7914-0.75442-0.26219-0.52614-0.17373-1.0688 0.242-1.4845 0.325-0.325 0.59737-0.39731 1.4965-0.39731h0.74522l-0.016546-1.3029-0.016547-1.303-0.85842-0.03098c-0.95189-0.03436-1.1011-0.08185-1.4285-0.45473-0.41634-0.47419-0.41634-1.1909 0-1.6651 0.3274-0.37289 0.47657-0.42038 1.4285-0.45473l0.85842-0.03098c0.020439-0.65632 0.040877-1.3126 0.061316-1.969l0.22845-0.46199c0.27932-0.56488 0.68739-0.96536 1.2601-1.2367l0.41224-0.19529h17.046c0.89507 0.39995 1.6838 1.2283 1.8711 2.0342 0.04206 0.19764 0.05742 3.9065 0.04631 11.179-0.01615 10.567-0.02005 10.892-0.1341 11.159-0.33819 0.7944-0.93925 1.3669-1.673 1.5935-0.39181 0.12102-0.55167 0.12321-8.6856 0.11918-6.5141-0.0032-8.2177-0.06923-8.5317-0.08187zm16.402-12.974v-10.485l-15.666 0.03112-0.015735 10.393c-0.00865 5.7161-0.00262 10.427 0.013395 10.47 0.023105 0.06076 1.6495 0.07664 7.8488 0.07664h7.8197zm-11.74 4.8901c0.10894-0.94072 0.48008-1.7217 1.1319-2.3818 0.50268-0.50907 0.8479-0.73587 1.4562-0.95667 1.4948-0.54258 3.2175-0.09939 4.2745 1.0997 0.50332 0.57098 0.95274 1.6548 0.95274 2.2977v0.26304h-7.8526zm3.278-4.9754c-0.78088-0.21845-1.3764-0.70868-1.721-1.4168-0.30291-0.7499-0.31703-1.549-0.01511-2.1904 0.27149-0.5731 0.67176-0.98081 1.2371-1.2601 0.77611-0.33296 1.5974-0.33243 2.2465-0.01805 1.6065 0.78192 1.9895 2.8441 0.76812 4.1355-0.65192 0.68931-1.6589 0.98946-2.5156 0.7498z" stroke-width=".061316"/>
  </g>
  <metadata>
  </metadata>
</svg>
