<?xml version="1.0" encoding="UTF-8"?>
<svg width="100" height="100" version="1.1" viewBox="0 0 26.458 26.458" xmlns="http://www.w3.org/2000/svg" xmlns:cc="http://creativecommons.org/ns#" xmlns:dc="http://purl.org/dc/elements/1.1/" xmlns:rdf="http://www.w3.org/1999/02/22-rdf-syntax-ns#">
  <title>datenschutz Icons</title>
  <g transform="translate(21.372 -11.337)">
    <path d="m-8.5469 37.636c-1.8547-0.62148-3.5973-2.1203-4.412-3.7947l-0.14417-0.2963h-8.2234v-22.158h26.384v22.158l-8.2191 3.9e-4 -0.1791 0.34764c-0.84677 1.6435-2.3455 2.9688-4.1223 3.6454-0.63034 0.24001-0.65241 0.242-1.0835 0.09753zm1.1639-1.8216c2.5058-1.254 3.3987-3.1092 3.3607-6.9824l-0.015708-1.5955-2.0097-0.91546c-2.3973-1.092-1.7711-1.0924-4.1739 0.0026l-2.0097 0.91587-0.0143 1.7229c-0.03146 3.7877 0.87845 5.6211 3.414 6.8788 0.70087 0.34767 0.70057 0.34767 1.4487-0.0267zm-2.3488-3.6346-1.313-1.3138 1.0792-1.0829 0.69712 0.69578c0.84793 0.84631 0.61784 0.91377 1.7779-0.52129 0.53849-0.66613 1.018-1.2466 1.0655-1.2899 0.077076-0.07022 1.2276 0.76466 1.2276 0.89082 0 0.02605-3.1882 3.935-3.2094 3.935-0.00608 0-0.60284-0.59119-1.325-1.3138zm-3.938-0.4254c-0.10849-0.74981-0.1314-1.325-0.13185-3.3108l-5.07e-4 -2.19 2.7834-1.2625c1.5309-0.69437 2.8143-1.2693 2.8519-1.2777 0.066118-0.01469 5.5008 2.4262 5.6409 2.5336 0.10046 0.0769 0.05248 4.8332-0.054185 5.3786l-0.073058 0.3736h6.1643v-15.974h-23.292v15.974h6.1461l-0.03542-0.24477zm-4.8224-10.319v-0.77295h20.715v1.5459h-20.715zm0-3.0918v-0.77296h20.715v1.5459h-20.715zm22.003-4.6377v-0.77296h-23.292v1.5459h23.292z" stroke-width=".05153"/>
  </g>
</svg>
