<?xml version="1.0" encoding="UTF-8"?>
<svg width="100" height="100" version="1.1" viewBox="0 0 26.458 26.458" xmlns="http://www.w3.org/2000/svg" xmlns:cc="http://creativecommons.org/ns#" xmlns:dc="http://purl.org/dc/elements/1.1/" xmlns:rdf="http://www.w3.org/1999/02/22-rdf-syntax-ns#">
  <title>Finger</title>
  <g transform="translate(3.1117 -14.333)">
    <path d="m7.4498 40.272c-0.90081-0.4564-3.2386-3.9701-3.8917-5.8494-2.5736-7.4052 6.2433-13.314 11.673-7.8232 2.0564 2.0795 2.9777 6.0639 1.4024 6.065-0.53662 3.71e-4 -0.74338-0.29007-0.80085-1.1251-0.37766-5.4868-7.001-7.5054-10.125-3.0858-1.9785 2.799-1.1395 6.3935 2.414 10.342 0.7783 0.86484 0.28019 1.9587-0.6722 1.4762zm4.7499 0.02211c-3.2953-0.89535-6.5905-5.6813-6.0887-8.8431 0.89304-5.6271 8.0911-5.026 8.3618 0.69828 0.16162 3.418 4.3295 3.4535 4.3295 0.03684 0-5.2251-4.1779-9.5233-8.9606-9.2185-6.9592 0.44345-10.566 8.6284-6.3546 14.421 0.42586 0.58572 0.4381 0.92808 0.045968 1.2857-0.53632 0.48915-1.0468 0.15895-1.8636-1.2054-5.2858-8.8292 3.9067-19.572 12.879-15.05 6.3999 3.2253 8.0659 13.587 2.2218 13.818-2.2282 0.08798-3.7334-1.4712-3.8503-3.9886-0.1947-4.1903-5.3006-4.214-5.2979-0.02455 0.00151 2.4166 2.9292 6.2321 5.0426 6.5718 0.56455 0.09075 0.76564 0.29837 0.76564 0.79051 0 0.63987-0.47552 0.91386-1.2302 0.70881zm2.9105-1.496c-2.8355-0.39243-5.5296-3.7348-5.6758-7.0415-0.069486-1.5716 1.4268-1.6328 1.5435-0.06308 0.20847 2.8045 2.2916 5.3802 4.504 5.569 0.713 0.06084 1.064 0.55335 0.79473 1.115-0.18618 0.38827-0.52283 0.50965-1.1664 0.42058zm-15.347-13.49c-0.51891-0.31944-0.53043-0.76112-0.038011-1.4577 4.6762-6.6149 13.987-7.4046 19.635-1.6654 1.7496 1.7778 2.1489 2.7187 1.3341 3.144-0.42533 0.22204-0.72988 0.06143-1.2767-0.67332-4.7332-6.36-13.639-6.3614-18.346-0.0028-0.55645 0.75165-0.8849 0.91611-1.3087 0.65525zm1.4143-5.0855c-0.60237-0.21514-0.67419-0.86656-0.15163-1.3752 4.1871-4.0755 11.252-4.7468 16.384-1.5568 2.2181 1.3787 2.9104 2.3316 2.0663 2.8443-0.42782 0.25983-0.64671 0.197-1.3354-0.38334-4.635-3.906-11.175-3.9126-15.773-0.01576-0.6505 0.55132-0.81833 0.6199-1.1912 0.48674z" stroke-width=".04885"/>
  </g>
</svg>
