<?xml version="1.0" encoding="UTF-8" standalone="no"?>
<!-- Created with Inkscape (http://www.inkscape.org/) -->
<svg
  id="svg5"
  width="680.25"
  height="98.32mm"
  version="1.1"
  viewBox="0 0 127.066 78.32"
  sodipodi:docname="Logo.svg"
  inkscape:version="1.1.1 (3bf5ae0d25, 2021-09-20)"
  xmlns:inkscape="http://www.inkscape.org/namespaces/inkscape"
  xmlns:sodipodi="http://sodipodi.sourceforge.net/DTD/sodipodi-0.dtd"
  xmlns="http://www.w3.org/2000/svg"
  xmlns:svg="http://www.w3.org/2000/svg"
  xmlns:rdf="http://www.w3.org/1999/02/22-rdf-syntax-ns#"
  xmlns:cc="http://creativecommons.org/ns#"
  xmlns:dc="http://purl.org/dc/elements/1.1/">
  <sodipodi:namedview
    id="namedview47"
    pagecolor="#ffffff"
    bordercolor="#666666"
    borderopacity="1.0"
    inkscape:pageshadow="2"
    inkscape:pageopacity="0.0"
    inkscape:pagecheckerboard="true"
    inkscape:document-units="mm"
    showgrid="false"
    inkscape:zoom="2.7431265"
    inkscape:cx="326.45232"
    inkscape:cy="53.406214"
    inkscape:window-width="1920"
    inkscape:window-height="1001"
    inkscape:window-x="-9"
    inkscape:window-y="-9"
    inkscape:window-maximized="1"
    inkscape:current-layer="layer1"
    borderlayer="false"
    width="136.06615mm"/>
  <title
    id="title833">Logo</title>
  <defs
    id="defs2">
    <linearGradient
      id="linearGradient8852">
      <stop
        style="stop-color:#20a2ff;stop-opacity:1"
        id="stop8850"
        offset="0"/>
    </linearGradient>
    <filter
      style="color-interpolation-filters:sRGB;"
      inkscape:label="Drop Shadow"
      id="filter1448"
      x="-6.8881187"
      y="-23.981865"
      width="14.412461"
      height="49.310865">
      <feFlood
        flood-opacity="0.498039"
        flood-color="rgb(0,0,0)"
        result="flood"
        id="feFlood1438"/>
      <feComposite
        in="flood"
        in2="SourceGraphic"
        operator="in"
        result="composite1"
        id="feComposite1440"/>
      <feGaussianBlur
        in="composite1"
        stdDeviation="170.213"
        result="blur"
        id="feGaussianBlur1442"/>
      <feOffset
        dx="-23.1118"
        dy="6"
        result="offset"
        id="feOffset1444"/>
      <feComposite
        in="SourceGraphic"
        in2="offset"
        operator="over"
        result="fbSourceGraphic"
        id="feComposite1446"/>
      <feColorMatrix
        result="fbSourceGraphicAlpha"
        in="fbSourceGraphic"
        values="0 0 0 -1 0 0 0 0 -1 0 0 0 0 -1 0 0 0 0 1 0"
        id="feColorMatrix1468"/>
      <feFlood
        id="feFlood1470"
        flood-opacity="0.498039"
        flood-color="rgb(0,0,0)"
        result="flood"
        in="fbSourceGraphic"/>
      <feComposite
        in2="fbSourceGraphic"
        id="feComposite1472"
        in="flood"
        operator="in"
        result="composite1"/>
      <feGaussianBlur
        id="feGaussianBlur1474"
        in="composite1"
        stdDeviation="170.213"
        result="blur"/>
      <feOffset
        id="feOffset1476"
        dx="-23.1118"
        dy="6"
        result="offset"/>
      <feComposite
        in2="offset"
        id="feComposite1478"
        in="fbSourceGraphic"
        operator="over"
        result="composite2"/>
    </filter>
    <filter
      y="-0.34713464"
      height="1.6942693"
      inkscape:menu-tooltip="Darkens the edge with an inner blur and adds a flexible glow"
      inkscape:menu="Shadows and Glows"
      inkscape:label="Dark and Glow"
      style="color-interpolation-filters:sRGB;"
      id="filter2108"
      x="-0.094439078"
      width="1.1888782">
      <feGaussianBlur
        stdDeviation="5"
        result="result6"
        id="feGaussianBlur2098"/>
      <feComposite
        result="result8"
        in="SourceGraphic"
        operator="atop"
        in2="result6"
        id="feComposite2100"/>
      <feComposite
        result="result9"
        operator="over"
        in2="SourceAlpha"
        in="result8"
        id="feComposite2102"/>
      <feColorMatrix
        values="1 0 0 0 0 0 1 0 0 0 0 0 1 0 0 0 0 0 1 0 "
        result="result10"
        id="feColorMatrix2104"/>
      <feBlend
        in="result10"
        mode="normal"
        in2="result6"
        id="feBlend2106"/>
    </filter>
  </defs>
  <g
    id="layer1"
    transform="translate(-47.563817,-144.86319)"
    style="display:inline">
    <g
      id="g72238">
      <g
        id="g72233">
        <path
          style="mix-blend-mode:normal;fill:#124747;fill-opacity:1;stroke:none;stroke-width:.0465876"
          id="path9712"
          d="m 135.7592,209.14392 c 4.1886,1.49608 12.00786,4.48954 15.51365,2.21199 0.75745,-0.43562 1.46396,-1.74142 0.60564,-2.21011 -16.11929,-0.002 0,0 -16.11929,-0.001"/>
        <path
          style="mix-blend-mode:normal;fill:#124747;fill-opacity:1;stroke:none;stroke-width:.0465876"
          id="path9708"
          d="m 145.52931,189.61164 -0.0474,14.08138 -20.35224,0.23717 6.11088,3.668 c 5.68513,0.0724 11.52503,0.0195 17.26397,0 l 0.0582,-17.95459 -3.03337,-0.032"/>
        <path
          style="mix-blend-mode:normal;fill:#124747;fill-opacity:1;stroke:none;stroke-width:.0465876"
          id="path9706"
          d="m 157,184 c 0.5124,0.10693 0.45119,0.83837 0,1 h -12 c -0.59887,-0.0857 -0.47181,-0.98621 0,-1"/>
        <path
          style="mix-blend-mode:normal;fill:#124747;fill-opacity:1;stroke:none;stroke-width:.0465876"
          id="path9702"
          d="m 144.745,182.76804 c -0.52987,-0.76929 1.56662,-5.69743 -2.119,-3.81894 v 3.81894 l -36.253,-0.16673 c -0.58625,0.21144 -0.6692,1.43333 0,1.81969 26.51326,0 10e-5,5e-5 26.54483,0.1054 1.20573,3.39283 1.30012,4.09138 5.07804,4.07222 3.97612,-3.84919 7.07784,-0.33116 9.82997,-0.27961 4.78479,0.0767 11.00427,0.53819 13.46893,-2.14492 0.87507,-0.92275 0.86974,-2.64315 0.27154,-3.40905"/>
        <path
          id="path9698"
          d="m 69.205304,165.85316 c 0.01471,1.30032 -0.005,4.15893 -0.0191,5.63576 l 2.547081,0.0232 m -2.665724,10.94748 0.0068,25.11871 40.054919,0.0199 -4.81808,-3.5597 -32.077578,-0.2166 -0.163814,-21.35868 M 61.2805,209.37914 c -0.528788,2.11377 1.156073,3.64002 2.873578,4.12486 l 54.223742,-0.0545 c -9.20176,-4.49536 -21.19316,-4.11724 -21.19316,-4.11724 -15.184378,-0.0522 -35.405969,0.045 -35.904002,0.047 z"
          style="mix-blend-mode:normal;fill:#363636;fill-opacity:1;stroke:none;stroke-width:.0465876"/>
        <path
          style="mix-blend-mode:normal;fill:#124747;fill-opacity:1;stroke:none;stroke-width:.0465876"
          id="path9696"
          d="M 77.627846,156.66175 82,161.73581 l 63.69488,-0.0349 c -5.7e-4,11.17118 -5.7e-4,-0.88542 -5.7e-4,10.28594 l 2.92279,0.0131 c 5.2e-4,-5.19822 -4.4e-4,-14.13585 -6.2e-4,-14.91758"/>
        <path
          id="path66537"
          d="m 84.990375,171.5871 c -3.848781,-4.71384 -12.527088,-15.00183 -10.431562,-20.52979 2.450478,-5.11496 8.656056,-2.5902 12.935042,-1.35958 C 61.375666,135.0382 62.905023,157.05822 75.8986,171.37561 m 13.413115,5.52914 c -0.03108,4.89723 0.414506,5.51513 -4.190715,5.65905 v 2.4142 l 2.774193,2.93291 11.858166,0.13309 -5.643128,-5.36454 c -6.047504,0.36331 -3.262553,-4.08061 -4.798518,-5.77474 m 16.212237,24.73854 c 28.46718,23.92058 78.64149,33.55303 46.96722,-1.03705 7.95053,26.6067 -20.29431,8.56181 -31.12749,2.6875 -1.67105,1.66331 -5.09183,2.11046 -7.30854,1.18332 -2.65661,-1.26693 -1.80149,-2.91406 -1.80149,-2.91406"
          style="mix-blend-mode:normal;fill:#124747;fill-opacity:1;stroke:none;stroke-width:.0465876"/>
      </g>
    </g>
    <g
      id="g79739"
      style="fill:#363636;fill-opacity:1;filter:url(#filter1448)">
      <g
        id="g837"
        style="fill:#363636;fill-opacity:1;filter:url(#filter2108)">
        <g
          id="text36996"
          aria-label="Computerservice"
          style="font-size:14.1111px;line-height:12;font-family:Aachen;-inkscape-font-specification:Aachen;letter-spacing:.264583px;word-spacing:.264583px;fill:#363636;stroke-width:.264583;fill-opacity:1">
          <g
            id="g454"
            style="fill:#363636;fill-opacity:1">
            <path
              id="path190"
              d="m 52.745236,174.19527 v -1.32292 q 0,-0.33073 -0.186035,-0.52365 -0.179145,-0.19293 -0.427191,-0.19293 -0.282498,0 -0.496094,0.24805 -0.213595,0.24116 -0.213595,0.68902 v 5.51215 q 0,0.37896 0.213595,0.60633 0.213596,0.22049 0.496094,0.22049 0.254937,0 0.434081,-0.20671 0.179145,-0.21359 0.179145,-0.62011 v -1.87413 h 3.748261 v 3.8585 q -0.39274,0.62701 -1.653644,0.97841 -1.254014,0.34451 -2.756075,0.34451 -2.046385,0 -3.286618,-0.87506 -1.233343,-0.88194 -1.233343,-2.76296 v -4.96094 q 0,-0.95084 0.248046,-1.65364 0.254937,-0.70969 0.757921,-1.17133 0.509873,-0.46853 1.274684,-0.69591 0.764811,-0.22738 1.798338,-0.22738 1.508951,0 2.645832,0.2825 1.143771,0.27561 2.204859,0.93018 v 3.41753 z"
              style="fill:#363636;fill-opacity:1"/>
            <path
              id="path187"
              d="m 57.419538,178.71523 v -3.0868 q 0,-1.06798 0.37207,-1.68121 0.37207,-0.62012 1.226453,-0.90261 0.861273,-0.2825 2.370224,-0.2825 1.50206,0 2.363334,0.26183 0.861273,0.25493 1.233343,0.87505 0.37207,0.61323 0.37207,1.72944 v 3.30729 q 0,0.93706 -0.248047,1.52962 -0.241156,0.58566 -0.723469,0.89572 -0.482313,0.31006 -1.205783,0.43408 -0.716579,0.11714 -1.791448,0.11714 -1.061089,0 -1.784558,-0.13092 -0.71658,-0.1378 -1.205783,-0.48231 -0.489203,-0.3514 -0.73725,-0.97152 -0.241156,-0.627 -0.241156,-1.6123 z m 4.630205,0.22049 v -3.41754 q 0,-0.24115 -0.09646,-0.41341 -0.09646,-0.17914 -0.241156,-0.26872 -0.144694,-0.0896 -0.323839,-0.0896 -0.268717,0 -0.468533,0.22738 -0.192925,0.22737 -0.192925,0.65457 v 3.30729 q 0,0.42719 0.192925,0.66834 0.199816,0.24116 0.468533,0.24116 0.172254,0 0.316948,-0.10335 0.151584,-0.10336 0.248047,-0.30317 0.09646,-0.20671 0.09646,-0.50298 z"
              style="fill:#363636;fill-opacity:1"/>
            <path
              id="path184"
              d="m 66.393315,172.98259 h 3.748261 v 0.44098 q 0.502983,-0.4203 0.971516,-0.59256 0.468533,-0.17914 1.1231,-0.17914 0.702799,0 1.10243,0.16536 0.406521,0.16536 0.881944,0.71658 0.661458,-0.44097 1.171331,-0.66146 0.516764,-0.22048 1.254014,-0.22048 2.535588,0 2.535588,2.42534 v 3.52778 q 0,1.06798 0.440972,1.21267 v 1.98437 h -3.638018 q -0.05512,-0.62011 -0.07579,-0.99218 -0.02067,-0.37207 -0.02756,-0.7028 -0.0069,-0.33762 -0.0069,-0.73036 v -3.08681 -0.17914 q 0,-0.9164 -0.675238,-0.9164 -0.213596,0 -0.537434,0.10336 v 3.52777 q 0,0.69591 0.440972,0.99219 v 1.98437 h -3.638018 q -0.05512,-0.62011 -0.07579,-0.99218 -0.02067,-0.37207 -0.02756,-0.7028 -0.0069,-0.33762 -0.0069,-0.73036 v -3.08681 q 0,-0.46164 -0.124024,-0.77859 -0.124023,-0.32384 -0.558105,-0.32384 -0.220486,0 -0.530544,0.11025 v 3.52777 q 0,0.42719 0.09646,0.66835 0.103353,0.24116 0.34451,0.32384 v 1.98437 h -4.189233 v -1.98437 q 0.296278,-0.22049 0.36518,-0.45475 0.07579,-0.23427 0.07579,-0.64768 v -2.42535 q 0,-1.07487 -0.551215,-1.21267 z"
              style="fill:#363636;fill-opacity:1"/>
            <path
              id="path181"
              d="m 80.548514,172.98259 h 3.748261 v 0.44098 q 0.516764,-0.31006 1.026637,-0.48232 0.509874,-0.17914 1.178222,-0.17914 0.771701,0 1.309135,0.25494 0.544325,0.24804 0.826823,0.74414 0.289388,0.4892 0.289388,1.20578 v 3.96875 q 0,0.49609 -0.04134,0.89572 -0.04134,0.39274 -0.241156,0.8406 -0.192925,0.44786 -0.633897,0.78548 -0.440972,0.33762 -1.178222,0.45476 -0.254937,0.0413 -0.564995,0.0413 -1.260904,0 -1.970593,-0.59256 0,0.66146 0.0689,1.00597 0.07579,0.3514 0.37207,0.42719 v 2.20486 h -4.189233 v -2.20486 q 0.296278,-0.14469 0.36518,-0.40652 0.07579,-0.25494 0.07579,-0.69591 v -5.51215 q 0,-1.06798 -0.440972,-1.21267 z m 3.748261,2.42535 v 3.96875 q 0.37207,0.14469 0.647677,0.14469 0.675238,0 0.675238,-1.02664 v -2.3151 q 0,-0.96463 -0.647677,-0.96463 -0.289388,0 -0.675238,0.19293 z"
              style="fill:#363636;fill-opacity:1"/>
            <path
              id="path178"
              d="m 89.742777,172.98259 h 3.527775 q 0.330729,0.33073 0.330729,1.10243 v 3.74827 q 0,0.81993 0.110243,1.26779 0.117133,0.44097 0.475423,0.44097 0.227376,0 0.516764,-0.16536 v -3.63802 q 0,-0.33073 -0.09646,-0.52366 -0.09646,-0.19292 -0.344509,-0.35828 v -1.87414 h 3.858504 v 5.73264 q 0,0.42719 0.09646,0.68902 0.103353,0.25493 0.34451,0.41341 v 1.98437 h -3.858504 v -0.44097 q -0.117133,0.11713 -0.406521,0.24805 -0.282498,0.12402 -0.689019,0.21359 -0.406521,0.0896 -0.888834,0.0896 -0.73725,0 -1.233343,-0.16537 -0.496093,-0.17225 -0.778591,-0.50298 -0.275607,-0.33762 -0.399631,-0.8475 -0.124023,-0.50987 -0.124023,-1.24023 v -3.30729 q 0,-0.40652 -0.09646,-0.61322 -0.08957,-0.2136 -0.344509,-0.37896 z"
              style="fill:#363636;fill-opacity:1"/>
            <path
              id="path175"
              d="m 99.157526,174.96697 v -1.98438 h 0.440972 v -1.76388 l 3.417532,-0.88195 v 2.64583 h 1.10243 v 1.98438 h -1.10243 v 3.52777 q 0,0.39274 0.0965,0.66835 0.0965,0.26872 0.33762,0.40652 0.24116,0.13781 0.66835,0.13781 v 1.98437 q -0.7717,0.22049 -2.20486,0.22049 -0.53054,0 -0.97152,-0.16537 -0.43408,-0.16536 -0.72347,-0.45475 -0.289383,-0.28939 -0.454748,-0.72347 -0.165364,-0.44097 -0.165364,-0.97152 v -4.6302 z"
              style="fill:#363636;fill-opacity:1"/>
            <path
              id="path172"
              d="m 105.0445,179.04596 v -3.30729 q 0,-1.17822 0.44786,-1.8259 0.45475,-0.65457 1.31603,-0.90261 0.86127,-0.24805 2.20486,-0.24805 1.70187,0 2.77674,0.58566 1.08176,0.57878 1.08176,1.94993 v 2.75607 h -4.51996 v 0.88195 q 0,0.44097 0.16536,0.66834 0.17226,0.22738 0.40652,0.22738 0.2136,0 0.37207,-0.17915 0.15848,-0.17914 0.15848,-0.49609 v -0.66146 h 3.41753 v 2.31511 q -0.2825,0.28249 -0.94396,0.56499 -0.65456,0.27561 -1.50895,0.46164 -0.84749,0.18604 -1.62608,0.18604 -1.24023,-0.0551 -2.07395,-0.36518 -0.83371,-0.31006 -1.25401,-0.94396 -0.4203,-0.64078 -0.4203,-1.66742 z m 3.30729,-2.97656 h 1.32291 q 0,-0.62701 -0.1378,-0.9164 -0.13091,-0.29627 -0.52365,-0.29627 -0.39274,0 -0.53055,0.29627 -0.13091,0.28939 -0.13091,0.9164 z"
              style="fill:#363636;fill-opacity:1"/>
            <path
              id="path169"
              d="m 113.79779,172.98259 h 3.63802 v 0.55122 q 0.17914,-0.24116 0.33073,-0.41341 0.15847,-0.17226 0.40652,-0.28939 0.25493,-0.11713 0.627,-0.11713 0.24116,0 0.50988,0.0482 v 3.19705 q -0.24116,-0.0551 -0.45475,-0.0551 -0.58567,0 -1.00597,0.31695 -0.41341,0.31695 -0.41341,0.8406 v 1.65365 q 0,0.91639 0.55121,1.10243 v 1.98437 h -4.18923 v -1.98437 q 0.29628,-0.22049 0.36518,-0.45475 0.0758,-0.23427 0.0758,-0.64768 v -2.75607 q 0,-0.55122 -0.44097,-0.99219 z"
              style="fill:#363636;fill-opacity:1"/>
            <path
              id="path166"
              d="m 120.23598,178.3845 h 3.19705 v 0.66146 q 0,0.37896 0.21359,0.58566 0.2136,0.19982 0.50299,0.19982 0.24804,0 0.43408,-0.15847 0.19292,-0.16537 0.19292,-0.44098 0,-0.0896 -0.0207,-0.18603 -0.0758,-0.33762 -0.44097,-0.53055 -0.36518,-0.19981 -0.75103,-0.28249 -0.37896,-0.0827 -1.12999,-0.22738 -0.75103,-0.14469 -0.9853,-0.2825 -0.71658,-0.30317 -1.08175,-0.89572 -0.36518,-0.59256 -0.36518,-1.30225 0,-0.75103 0.38585,-1.41937 0.38585,-0.67524 1.06108,-1.01286 0.43409,-0.22049 1.06109,-0.33073 0.62701,-0.11024 1.3367,-0.11024 0.70969,0 1.24023,0.11024 0.37207,0.0689 0.86128,0.21359 0.4892,0.1447 0.98529,0.39964 0.50299,0.25493 0.79926,0.59944 v 2.09462 h -3.0868 v -0.55122 q 0,-0.35829 -0.20671,-0.54432 -0.2067,-0.18604 -0.4892,-0.18604 -0.25494,0 -0.44097,0.13781 -0.18604,0.1378 -0.18604,0.37207 0,0.31006 0.16537,0.4892 0.16536,0.17915 0.37207,0.25494 0.21359,0.0689 0.89572,0.24804 0.70969,0.13092 1.10932,0.22738 0.39963,0.0896 0.85439,0.33073 0.46164,0.24116 0.78548,0.66835 0.33073,0.42719 0.44786,1.08865 0.0551,0.34451 0.0551,0.61322 0,0.95085 -0.53054,1.57097 -0.53055,0.61322 -1.39182,0.88883 -0.86127,0.27561 -1.86724,0.27561 -1.04042,0 -1.99816,-0.26183 -0.30316,-0.0482 -0.75103,-0.22738 -0.44097,-0.18603 -0.78548,-0.39274 -0.33762,-0.21359 -0.44786,-0.37207 z"
              style="fill:#363636;fill-opacity:1"/>
            <path
              id="path163"
              d="m 128.87903,179.04596 v -3.30729 q 0,-1.17822 0.44786,-1.8259 0.45476,-0.65457 1.31603,-0.90261 0.86127,-0.24805 2.20486,-0.24805 1.70188,0 2.77674,0.58566 1.08176,0.57878 1.08176,1.94993 v 2.75607 h -4.51996 v 0.88195 q 0,0.44097 0.16537,0.66834 0.17225,0.22738 0.40652,0.22738 0.21359,0 0.37207,-0.17915 0.15847,-0.17914 0.15847,-0.49609 v -0.66146 h 3.41753 v 2.31511 q -0.28249,0.28249 -0.94395,0.56499 -0.65457,0.27561 -1.50895,0.46164 -0.8475,0.18604 -1.62609,0.18604 -1.24023,-0.0551 -2.07394,-0.36518 -0.83371,-0.31006 -1.25402,-0.94396 -0.4203,-0.64078 -0.4203,-1.66742 z m 3.30729,-2.97656 h 1.32292 q 0,-0.62701 -0.13781,-0.9164 -0.13091,-0.29627 -0.52365,-0.29627 -0.39274,0 -0.53054,0.29627 -0.13092,0.28939 -0.13092,0.9164 z"
              style="fill:#363636;fill-opacity:1"/>
            <path
              id="path160"
              d="m 137.63232,172.98259 h 3.63802 v 0.55122 q 0.17915,-0.24116 0.33073,-0.41341 0.15847,-0.17226 0.40652,-0.28939 0.25494,-0.11713 0.62701,-0.11713 0.24115,0 0.50987,0.0482 v 3.19705 q -0.24116,-0.0551 -0.45475,-0.0551 -0.58567,0 -1.00597,0.31695 -0.41341,0.31695 -0.41341,0.8406 v 1.65365 q 0,0.91639 0.55122,1.10243 v 1.98437 h -4.18924 v -1.98437 q 0.29628,-0.22049 0.36518,-0.45475 0.0758,-0.23427 0.0758,-0.64768 v -2.75607 q 0,-0.55122 -0.44097,-0.99219 z"
              style="fill:#363636;fill-opacity:1"/>
            <path
              id="path157"
              d="m 143.73978,172.98259 h 4.07899 v 1.98438 q -0.28939,0.14469 -0.28939,0.51676 0,0.19982 0.0827,0.59256 0.0827,0.38585 0.20671,0.87505 l 0.33073,1.32292 0.55121,-2.20486 q 0.0482,-0.16537 0.0896,-0.33762 0.0482,-0.17226 0.0482,-0.29628 0,-0.32384 -0.35829,-0.46853 v -1.98438 h 3.74826 v 1.98438 q -0.22738,0.0758 -0.34451,0.2825 -0.11024,0.2067 -0.20671,0.59944 l -1.76389,5.95312 h -3.96874 l -1.65365,-5.73263 q -0.11024,-0.44097 -0.22048,-0.69591 -0.11025,-0.26183 -0.33073,-0.40652 z"
              style="fill:#363636;fill-opacity:1"/>
            <path
              id="path154"
              d="m 152.82381,172.98259 h 3.74826 v 5.73264 q 0,0.99219 0.44097,0.99219 v 2.09461 h -4.18923 v -1.98437 q 0.2067,-0.10335 0.2756,-0.24805 0.0689,-0.14469 0.0689,-0.37207 0,-0.14469 -0.007,-0.24804 0,-0.10336 -0.007,-0.23427 v -2.75607 q 0,-0.37897 -0.0689,-0.53055 -0.0689,-0.15847 -0.26182,-0.3514 z m 0.11024,-1.98437 q 0,-0.46853 0.27561,-0.79237 0.2756,-0.33073 0.70279,-0.48231 0.4272,-0.15848 0.89573,-0.15848 0.72347,0 1.24023,0.37207 0.52366,0.36518 0.52366,1.06109 0,0.7028 -0.53744,1.06798 -0.53743,0.36518 -1.33669,0.36518 -0.73725,0 -1.25402,-0.4203 -0.50987,-0.42719 -0.50987,-1.01286 z"
              style="fill:#363636;fill-opacity:1"/>
            <path
              id="path151"
              d="m 158.04932,179.04596 v -3.19705 q 0,-0.77859 0.17914,-1.3298 0.17915,-0.55122 0.59256,-0.90951 0.41341,-0.36518 1.13688,-0.55121 0.73036,-0.18604 1.83968,-0.18604 1.31603,0 2.3151,0.24805 1.00597,0.24116 1.5434,0.85438 v 2.3151 h -3.0868 v -0.55121 q 0,-0.44097 -0.0965,-0.66146 -0.0896,-0.22048 -0.45475,-0.22048 -0.26183,0 -0.40653,0.13091 -0.14469,0.13091 -0.19981,0.37896 -0.0551,0.24805 -0.0551,0.59256 v 2.75607 q 0,0.42719 0.0276,0.66835 0.0276,0.23426 0.14469,0.39274 0.12403,0.15158 0.37896,0.15158 0.38585,0 0.52366,-0.27561 0.1378,-0.2756 0.1378,-0.82682 v -0.7717 h 3.0868 v 2.75608 q -0.41341,0.41341 -1.03352,0.68901 -0.62012,0.27561 -1.32292,0.40653 -0.69591,0.1378 -1.28846,0.1378 -0.23427,0 -0.43409,-0.0207 -0.75792,-0.0482 -1.34358,-0.17226 -0.57878,-0.12402 -1.08176,-0.42719 -0.49609,-0.31006 -0.79926,-0.88883 -0.30317,-0.58567 -0.30317,-1.48828 z"
              style="fill:#363636;fill-opacity:1"/>
            <path
              id="path148"
              d="m 166.80261,179.04596 v -3.30729 q 0,-1.17822 0.44786,-1.8259 0.45475,-0.65457 1.31603,-0.90261 0.86127,-0.24805 2.20486,-0.24805 1.70187,0 2.77674,0.58566 1.08176,0.57878 1.08176,1.94993 v 2.75607 h -4.51996 v 0.88195 q 0,0.44097 0.16536,0.66834 0.17226,0.22738 0.40652,0.22738 0.2136,0 0.37207,-0.17915 0.15848,-0.17914 0.15848,-0.49609 v -0.66146 h 3.41753 v 2.31511 q -0.2825,0.28249 -0.94396,0.56499 -0.65456,0.27561 -1.50895,0.46164 -0.84749,0.18604 -1.62608,0.18604 -1.24023,-0.0551 -2.07395,-0.36518 -0.83371,-0.31006 -1.25401,-0.94396 -0.4203,-0.64078 -0.4203,-1.66742 z m 3.30729,-2.97656 h 1.32291 q 0,-0.62701 -0.1378,-0.9164 -0.13091,-0.29627 -0.52365,-0.29627 -0.39274,0 -0.53055,0.29627 -0.13091,0.28939 -0.13091,0.9164 z"
              style="fill:#363636;fill-opacity:1"/>
          </g>
        </g>
        <g
          id="text36996-2"
          aria-label="Weigelt"
          style="font-size:14.1111px;line-height:12;font-family:Aachen;-inkscape-font-specification:Aachen;letter-spacing:.264583px;word-spacing:.264583px;display:inline;fill:#363636;stroke-width:.264583;fill-opacity:1">
          <g
            id="g729"
            style="fill:#363636;fill-opacity:1">
            <path
              id="path145"
              d="m 84.525717,188.46548 h 4.630205 v 2.09462 q -0.206706,0.0965 -0.275608,0.29627 -0.0689,0.19982 -0.0689,0.48921 0.0069,0.13091 0.0069,0.24115 0.0069,0.11025 0.0069,0.29628 l 0.440972,2.97656 1.212672,-6.39409 h 2.315103 l 1.322915,6.39409 0.440972,-3.19704 q 0,-0.44098 -0.07579,-0.69591 -0.0689,-0.26183 -0.36518,-0.40652 v -2.09462 h 4.07899 v 2.09462 q -0.220486,0.22048 -0.330729,0.55121 -0.110243,0.33073 -0.220486,0.88195 l -1.653644,8.4887 h -3.638018 l -0.992187,-5.73263 -1.10243,5.73263 h -3.638018 l -1.433158,-8.4887 q -0.151584,-0.75103 -0.661458,-1.43316 z"
              style="fill:#363636;fill-opacity:1"/>
            <path
              id="path142"
              d="m 99.121886,197.72589 v -3.30729 q 0,-1.17822 0.447862,-1.8259 0.454752,-0.65457 1.316022,-0.90261 0.86128,-0.24805 2.20486,-0.24805 1.70188,0 2.77675,0.58567 1.08176,0.57877 1.08176,1.94992 v 2.75607 h -4.51997 v 0.88195 q 0,0.44097 0.16537,0.66834 0.17225,0.22738 0.40652,0.22738 0.2136,0 0.37207,-0.17914 0.15847,-0.17915 0.15847,-0.4961 v -0.66145 h 3.41754 v 2.3151 q -0.2825,0.28249 -0.94396,0.56499 -0.65457,0.27561 -1.50895,0.46165 -0.84749,0.18603 -1.62608,0.18603 -1.24024,-0.0551 -2.07395,-0.36518 -0.833712,-0.31006 -1.254013,-0.94396 -0.420301,-0.64078 -0.420301,-1.66742 z m 3.307284,-2.97656 h 1.32292 q 0,-0.62701 -0.1378,-0.9164 -0.13092,-0.29627 -0.52366,-0.29627 -0.39274,0 -0.53054,0.29627 -0.13092,0.28939 -0.13092,0.9164 z"
              style="fill:#363636;fill-opacity:1"/>
            <path
              id="path139"
              d="m 107.87518,191.66253 h 3.74826 v 5.73263 q 0,0.99219 0.44097,0.99219 v 2.09461 h -4.18923 v -1.98437 q 0.2067,-0.10335 0.27561,-0.24805 0.0689,-0.14469 0.0689,-0.37207 0,-0.14469 -0.007,-0.24804 0,-0.10336 -0.007,-0.23427 v -2.75607 q 0,-0.37896 -0.0689,-0.53055 -0.0689,-0.15847 -0.26182,-0.3514 z m 0.11024,-1.98438 q 0,-0.46853 0.27561,-0.79237 0.27561,-0.33073 0.7028,-0.48231 0.42719,-0.15848 0.89572,-0.15848 0.72347,0 1.24023,0.37207 0.52366,0.36518 0.52366,1.06109 0,0.7028 -0.53744,1.06798 -0.53743,0.36518 -1.33669,0.36518 -0.73725,0 -1.25402,-0.4203 -0.50987,-0.42719 -0.50987,-1.01286 z"
              style="fill:#363636;fill-opacity:1"/>
            <path
              id="path136"
              d="m 112.99045,198.16686 v -3.52777 q 0,-1.00597 0.18604,-1.66054 0.19292,-0.65457 0.74414,-1.04042 0.55121,-0.38585 1.60541,-0.38585 0.68902,0 1.17133,0.11025 0.48231,0.11024 0.92329,0.55121 v -0.55121 h 3.74826 v 1.98437 q -0.44098,0.29628 -0.44098,0.99219 v 6.1736 q 0,1.04731 -0.23426,1.6881 -0.23427,0.64768 -0.68902,0.9784 -0.44786,0.33073 -1.08865,0.46165 -0.64079,0.13091 -1.62608,0.17914 -0.23427,0.0138 -0.35829,0.0138 -0.65457,0 -1.41249,-0.15847 -0.75792,-0.15159 -1.39182,-0.41341 -0.62701,-0.25494 -0.91639,-0.54433 v -2.09461 h 3.19704 q 0,0.3514 0.0276,0.54432 0.0276,0.19982 0.1447,0.32384 0.12402,0.12402 0.37896,0.12402 0.28249,0 0.42719,-0.0827 0.15158,-0.0758 0.19292,-0.22049 0.0482,-0.14469 0.0482,-0.39274 0,-0.13091 -0.007,-0.22048 0,-0.0827 0,-0.18604 v -0.7717 q -0.88195,0.66146 -1.98438,0.66146 -1.29535,0 -1.97059,-0.67524 -0.67524,-0.67524 -0.67524,-1.86035 z m 4.63021,-0.11024 v -3.96875 q -0.28939,-0.14469 -0.53744,-0.14469 -0.67524,0 -0.67524,0.91639 v 1.98438 q 0,0.47542 0.0482,0.7717 0.0551,0.28938 0.19293,0.42719 0.1378,0.1378 0.37896,0.1378 0.22738,0 0.59256,-0.12402 z"
              style="fill:#363636;fill-opacity:1"/>
            <path
              id="path133"
              d="m 122.4052,197.72589 v -3.30729 q 0,-1.17822 0.44786,-1.8259 0.45476,-0.65457 1.31603,-0.90261 0.86127,-0.24805 2.20486,-0.24805 1.70187,0 2.77674,0.58567 1.08176,0.57877 1.08176,1.94992 v 2.75607 h -4.51996 v 0.88195 q 0,0.44097 0.16537,0.66834 0.17225,0.22738 0.40652,0.22738 0.21359,0 0.37207,-0.17914 0.15847,-0.17915 0.15847,-0.4961 v -0.66145 h 3.41753 v 2.3151 q -0.2825,0.28249 -0.94395,0.56499 -0.65457,0.27561 -1.50895,0.46165 -0.8475,0.18603 -1.62609,0.18603 -1.24023,-0.0551 -2.07394,-0.36518 -0.83372,-0.31006 -1.25402,-0.94396 -0.4203,-0.64078 -0.4203,-1.66742 z m 3.30729,-2.97656 h 1.32292 q 0,-0.62701 -0.13781,-0.9164 -0.13091,-0.29627 -0.52365,-0.29627 -0.39274,0 -0.53055,0.29627 -0.13091,0.28939 -0.13091,0.9164 z"
              style="fill:#363636;fill-opacity:1"/>
            <path
              id="path130"
              d="m 131.15849,188.46548 h 3.74826 v 8.7092 q 0,0.41341 0.0207,0.64078 0.0207,0.22049 0.11714,0.39963 0.10335,0.17915 0.30316,0.2825 v 1.98437 h -4.18923 v -1.98437 q 0.28939,-0.14469 0.36518,-0.42719 0.0758,-0.28939 0.0758,-0.67524 v -5.73263 q 0,-0.52366 -0.0758,-0.7717 -0.0689,-0.25494 -0.36518,-0.33073 z"
              style="fill:#363636;fill-opacity:1"/>
            <path
              id="path127"
              d="m 135.94304,193.6469 v -1.98437 h 0.44097 v -1.76389 l 3.41753,-0.88194 v 2.64583 h 1.10243 v 1.98437 h -1.10243 v 3.52778 q 0,0.39274 0.0965,0.66834 0.0965,0.26872 0.33762,0.40652 0.24116,0.13781 0.66835,0.13781 v 1.98437 q -0.7717,0.22049 -2.20486,0.22049 -0.53054,0 -0.97151,-0.16537 -0.43409,-0.16536 -0.72347,-0.45475 -0.28939,-0.28939 -0.45476,-0.72347 -0.16536,-0.44097 -0.16536,-0.97152 v -4.6302 z"
              style="fill:#363636;fill-opacity:1"/>
          </g>
        </g>
      </g>
    </g>
    <rect
      style="fill:#3ef100;fill-opacity:1;stroke-width:.264583"
      id="rect75319"
      width="0"
      height=".843"
      x="157.767"
      y="184.188"/>
  </g>
  <metadata
    id="metadata831">
    <rdf:RDF>
      <cc:Work
        rdf:about="">
        <dc:title>Logo</dc:title>
      </cc:Work>
    </rdf:RDF>
  </metadata>
</svg>
