<?xml version="1.0" encoding="UTF-8"?>
<svg width="127.07mm" height="78.32mm" version="1.1" viewBox="0 0 127.07 78.32" xmlns="http://www.w3.org/2000/svg" xmlns:cc="http://creativecommons.org/ns#" xmlns:dc="http://purl.org/dc/elements/1.1/" xmlns:rdf="http://www.w3.org/1999/02/22-rdf-syntax-ns#">
  <title>Logo</title>
  <g transform="translate(-47.564 -144.86)">
    <g>
      <path d="m135.76 209.14c4.1886 1.4961 12.008 4.4895 15.514 2.212 0.75745-0.43562 1.464-1.7414 0.60564-2.2101-16.119-2e-3 0 0-16.119-1e-3" fill="#265a5b" style="mix-blend-mode:normal"/>
      <path d="m145.53 189.61-0.0474 14.081-20.352 0.23717 6.1109 3.668c5.6851 0.0724 11.525 0.0195 17.264 0l0.0582-17.955-3.0334-0.032" fill="#265a5b" style="mix-blend-mode:normal"/>
      <path d="m157 184c0.5124 0.10693 0.45119 0.83837 0 1h-12c-0.59887-0.0857-0.47181-0.98621 0-1" fill="#265a5b" style="mix-blend-mode:normal"/>
      <path d="m144.74 182.77c-0.52987-0.76929 1.5666-5.6974-2.119-3.8189v3.8189l-36.253-0.16673c-0.58625 0.21144-0.6692 1.4333 0 1.8197 26.513 0 1e-4 5e-5 26.545 0.1054 1.2057 3.3928 1.3001 4.0914 5.078 4.0722 3.9761-3.8492 7.0778-0.33116 9.83-0.27961 4.7848 0.0767 11.004 0.53819 13.469-2.1449 0.87507-0.92275 0.86974-2.6432 0.27154-3.409" fill="#265a5b" style="mix-blend-mode:normal"/>
      <path d="m69.205 165.85c0.01471 1.3003-5e-3 4.1589-0.0191 5.6358l2.5471 0.0232m-2.6657 10.947 0.0068 25.119 40.055 0.0199-4.8181-3.5597-32.078-0.2166-0.16381-21.359m-10.789 26.916c-0.52879 2.1138 1.1561 3.64 2.8736 4.1249l54.224-0.0545c-9.2018-4.4954-21.193-4.1172-21.193-4.1172-15.184-0.0522-35.406 0.045-35.904 0.047z" fill="#414141" style="mix-blend-mode:normal"/>
      <path d="m77.628 156.66 4.3722 5.0741 63.695-0.0349c-5.7e-4 11.171-5.7e-4 -0.88542-5.7e-4 10.286l2.9228 0.0131c5.2e-4 -5.1982-4.4e-4 -14.136-6.2e-4 -14.918" fill="#265a5b" style="mix-blend-mode:normal"/>
      <path d="m84.99 171.59c-3.8488-4.7138-12.527-15.002-10.432-20.53 2.4505-5.115 8.6561-2.5902 12.935-1.3596-26.118-14.66-24.589 7.3605-11.595 21.678m13.413 5.5291c-0.03108 4.8972 0.41451 5.5151-4.1907 5.659v2.4142l2.7742 2.9329 11.858 0.13309-5.6431-5.3645c-6.0475 0.36331-3.2626-4.0806-4.7985-5.7747m16.212 24.739c28.467 23.921 78.641 33.553 46.967-1.037 7.9505 26.607-20.294 8.5618-31.127 2.6875-1.671 1.6633-5.0918 2.1105-7.3085 1.1833-2.6566-1.2669-1.8015-2.9141-1.8015-2.9141" fill="#265a5b" style="mix-blend-mode:normal"/>
    </g>
    <g fill="#414141">
      <g fill="#414141" stroke-width=".26458">
        <g aria-label="Computerservice">
          <g fill="#414141">
            <path d="m52.745 174.2v-1.3229q0-0.33073-0.18604-0.52365-0.17914-0.19293-0.42719-0.19293-0.2825 0-0.49609 0.24805-0.2136 0.24116-0.2136 0.68902v5.5122q0 0.37896 0.2136 0.60633 0.2136 0.22049 0.49609 0.22049 0.25494 0 0.43408-0.20671 0.17914-0.21359 0.17914-0.62011v-1.8741h3.7483v3.8585q-0.39274 0.62701-1.6536 0.97841-1.254 0.34451-2.7561 0.34451-2.0464 0-3.2866-0.87506-1.2333-0.88194-1.2333-2.763v-4.9609q0-0.95084 0.24805-1.6536 0.25494-0.70969 0.75792-1.1713 0.50987-0.46853 1.2747-0.69591t1.7983-0.22738q1.509 0 2.6458 0.2825 1.1438 0.27561 2.2049 0.93018v3.4175z"/>
            <path d="m57.42 178.72v-3.0868q0-1.068 0.37207-1.6812 0.37207-0.62012 1.2265-0.90261 0.86127-0.2825 2.3702-0.2825 1.5021 0 2.3633 0.26183 0.86127 0.25493 1.2333 0.87505 0.37207 0.61323 0.37207 1.7294v3.3073q0 0.93706-0.24805 1.5296-0.24116 0.58566-0.72347 0.89572t-1.2058 0.43408q-0.71658 0.11714-1.7914 0.11714-1.0611 0-1.7846-0.13092-0.71658-0.1378-1.2058-0.48231-0.4892-0.3514-0.73725-0.97152-0.24116-0.627-0.24116-1.6123zm4.6302 0.22049v-3.4175q0-0.24115-0.09646-0.41341-0.09646-0.17914-0.24116-0.26872-0.14469-0.0896-0.32384-0.0896-0.26872 0-0.46853 0.22738-0.19292 0.22737-0.19292 0.65457v3.3073q0 0.42719 0.19292 0.66834 0.19982 0.24116 0.46853 0.24116 0.17225 0 0.31695-0.10335 0.15158-0.10336 0.24805-0.30317 0.09646-0.20671 0.09646-0.50298z"/>
            <path d="m66.393 172.98h3.7483v0.44098q0.50298-0.4203 0.97152-0.59256 0.46853-0.17914 1.1231-0.17914 0.7028 0 1.1024 0.16536 0.40652 0.16536 0.88194 0.71658 0.66146-0.44097 1.1713-0.66146 0.51676-0.22048 1.254-0.22048 2.5356 0 2.5356 2.4253v3.5278q0 1.068 0.44097 1.2127v1.9844h-3.638q-0.05512-0.62011-0.07579-0.99218t-0.02756-0.7028q-0.0069-0.33762-0.0069-0.73036v-3.266q0-0.9164-0.67524-0.9164-0.2136 0-0.53743 0.10336v3.5278q0 0.69591 0.44097 0.99219v1.9844h-3.638q-0.05512-0.62011-0.07579-0.99218t-0.02756-0.7028q-0.0069-0.33762-0.0069-0.73036v-3.0868q0-0.46164-0.12402-0.77859-0.12402-0.32384-0.5581-0.32384-0.22049 0-0.53054 0.11025v3.5278q0 0.42719 0.09646 0.66835 0.10335 0.24116 0.34451 0.32384v1.9844h-4.1892v-1.9844q0.29628-0.22049 0.36518-0.45475 0.07579-0.23427 0.07579-0.64768v-2.4254q0-1.0749-0.55122-1.2127z"/>
            <path d="m80.549 172.98h3.7483v0.44098q0.51676-0.31006 1.0266-0.48232 0.50987-0.17914 1.1782-0.17914 0.7717 0 1.3091 0.25494 0.54432 0.24804 0.82682 0.74414 0.28939 0.4892 0.28939 1.2058v3.9688q0 0.49609-0.04134 0.89572-0.04134 0.39274-0.24116 0.8406-0.19292 0.44786-0.6339 0.78548t-1.1782 0.45476q-0.25494 0.0413-0.565 0.0413-1.2609 0-1.9706-0.59256 0 0.66146 0.0689 1.006 0.07579 0.3514 0.37207 0.42719v2.2049h-4.1892v-2.2049q0.29628-0.14469 0.36518-0.40652 0.07579-0.25494 0.07579-0.69591v-5.5122q0-1.068-0.44097-1.2127zm3.7483 2.4254v3.9688q0.37207 0.14469 0.64768 0.14469 0.67524 0 0.67524-1.0266v-2.3151q0-0.96463-0.64768-0.96463-0.28939 0-0.67524 0.19293z"/>
            <path d="m89.743 172.98h3.5278q0.33073 0.33073 0.33073 1.1024v3.7483q0 0.81993 0.11024 1.2678 0.11713 0.44097 0.47542 0.44097 0.22738 0 0.51676-0.16536v-3.638q0-0.33073-0.09646-0.52366-0.09646-0.19292-0.34451-0.35828v-1.8741h3.8585v5.7326q0 0.42719 0.09646 0.68902 0.10335 0.25493 0.34451 0.41341v1.9844h-3.8585v-0.44097q-0.11713 0.11713-0.40652 0.24805-0.2825 0.12402-0.68902 0.21359-0.40652 0.0896-0.88883 0.0896-0.73725 0-1.2333-0.16537-0.49609-0.17225-0.77859-0.50298-0.27561-0.33762-0.39963-0.8475-0.12402-0.50987-0.12402-1.2402v-3.3073q0-0.40652-0.09646-0.61322-0.08957-0.2136-0.34451-0.37896z"/>
            <path d="m99.158 174.97v-1.9844h0.44097v-1.7639l3.4175-0.88195v2.6458h1.1024v1.9844h-1.1024v3.5278q0 0.39274 0.0965 0.66835 0.0965 0.26872 0.33762 0.40652 0.24116 0.13781 0.66835 0.13781v1.9844q-0.7717 0.22049-2.2049 0.22049-0.53054 0-0.97152-0.16537-0.43408-0.16536-0.72347-0.45475-0.28938-0.28939-0.45475-0.72347-0.16536-0.44097-0.16536-0.97152v-4.6302z"/>
            <path d="m105.04 179.05v-3.3073q0-1.1782 0.44786-1.8259 0.45475-0.65457 1.316-0.90261 0.86127-0.24805 2.2049-0.24805 1.7019 0 2.7767 0.58566 1.0818 0.57878 1.0818 1.9499v2.7561h-4.52v0.88195q0 0.44097 0.16536 0.66834 0.17226 0.22738 0.40652 0.22738 0.2136 0 0.37207-0.17915 0.15848-0.17914 0.15848-0.49609v-0.66146h3.4175v2.3151q-0.2825 0.28249-0.94396 0.56499-0.65456 0.27561-1.509 0.46164-0.84749 0.18604-1.6261 0.18604-1.2402-0.0551-2.074-0.36518-0.83371-0.31006-1.254-0.94396-0.4203-0.64078-0.4203-1.6674zm3.3073-2.9766h1.3229q0-0.62701-0.1378-0.9164-0.13091-0.29627-0.52365-0.29627t-0.53055 0.29627q-0.13091 0.28939-0.13091 0.9164z"/>
            <path d="m113.8 172.98h3.638v0.55122q0.17914-0.24116 0.33073-0.41341 0.15847-0.17226 0.40652-0.28939 0.25493-0.11713 0.627-0.11713 0.24116 0 0.50988 0.0482v3.197q-0.24116-0.0551-0.45475-0.0551-0.58567 0-1.006 0.31695-0.41341 0.31695-0.41341 0.8406v1.6536q0 0.91639 0.55121 1.1024v1.9844h-4.1892v-1.9844q0.29628-0.22049 0.36518-0.45475 0.0758-0.23427 0.0758-0.64768v-2.7561q0-0.55122-0.44097-0.99219z"/>
            <path d="m120.24 178.38h3.197v0.66146q0 0.37896 0.21359 0.58566 0.2136 0.19982 0.50299 0.19982 0.24804 0 0.43408-0.15847 0.19292-0.16537 0.19292-0.44098 0-0.0896-0.0207-0.18603-0.0758-0.33762-0.44097-0.53055-0.36518-0.19981-0.75103-0.28249-0.37896-0.0827-1.13-0.22738-0.75103-0.14469-0.9853-0.2825-0.71658-0.30317-1.0818-0.89572-0.36518-0.59256-0.36518-1.3022 0-0.75103 0.38585-1.4194 0.38585-0.67524 1.0611-1.0129 0.43409-0.22049 1.0611-0.33073 0.62701-0.11024 1.3367-0.11024t1.2402 0.11024q0.37207 0.0689 0.86128 0.21359 0.4892 0.1447 0.98529 0.39964 0.50299 0.25493 0.79926 0.59944v2.0946h-3.0868v-0.55122q0-0.35829-0.20671-0.54432-0.2067-0.18604-0.4892-0.18604-0.25494 0-0.44097 0.13781-0.18604 0.1378-0.18604 0.37207 0 0.31006 0.16537 0.4892 0.16536 0.17915 0.37207 0.25494 0.21359 0.0689 0.89572 0.24804 0.70969 0.13092 1.1093 0.22738 0.39963 0.0896 0.85439 0.33073 0.46164 0.24116 0.78548 0.66835 0.33073 0.42719 0.44786 1.0886 0.0551 0.34451 0.0551 0.61322 0 0.95085-0.53054 1.571-0.53055 0.61322-1.3918 0.88883t-1.8672 0.27561q-1.0404 0-1.9982-0.26183-0.30316-0.0482-0.75103-0.22738-0.44097-0.18603-0.78548-0.39274-0.33762-0.21359-0.44786-0.37207z"/>
            <path d="m128.88 179.05v-3.3073q0-1.1782 0.44786-1.8259 0.45476-0.65457 1.316-0.90261 0.86127-0.24805 2.2049-0.24805 1.7019 0 2.7767 0.58566 1.0818 0.57878 1.0818 1.9499v2.7561h-4.52v0.88195q0 0.44097 0.16537 0.66834 0.17225 0.22738 0.40652 0.22738 0.21359 0 0.37207-0.17915 0.15847-0.17914 0.15847-0.49609v-0.66146h3.4175v2.3151q-0.28249 0.28249-0.94395 0.56499-0.65457 0.27561-1.509 0.46164-0.8475 0.18604-1.6261 0.18604-1.2402-0.0551-2.0739-0.36518-0.83371-0.31006-1.254-0.94396-0.4203-0.64078-0.4203-1.6674zm3.3073-2.9766h1.3229q0-0.62701-0.13781-0.9164-0.13091-0.29627-0.52365-0.29627t-0.53054 0.29627q-0.13092 0.28939-0.13092 0.9164z"/>
            <path d="m137.63 172.98h3.638v0.55122q0.17915-0.24116 0.33073-0.41341 0.15847-0.17226 0.40652-0.28939 0.25494-0.11713 0.62701-0.11713 0.24115 0 0.50987 0.0482v3.197q-0.24116-0.0551-0.45475-0.0551-0.58567 0-1.006 0.31695-0.41341 0.31695-0.41341 0.8406v1.6536q0 0.91639 0.55122 1.1024v1.9844h-4.1892v-1.9844q0.29628-0.22049 0.36518-0.45475 0.0758-0.23427 0.0758-0.64768v-2.7561q0-0.55122-0.44097-0.99219z"/>
            <path d="m143.74 172.98h4.079v1.9844q-0.28939 0.14469-0.28939 0.51676 0 0.19982 0.0827 0.59256 0.0827 0.38585 0.20671 0.87505l0.33073 1.3229 0.55121-2.2049q0.0482-0.16537 0.0896-0.33762 0.0482-0.17226 0.0482-0.29628 0-0.32384-0.35829-0.46853v-1.9844h3.7483v1.9844q-0.22738 0.0758-0.34451 0.2825-0.11024 0.2067-0.20671 0.59944l-1.7639 5.9531h-3.9687l-1.6536-5.7326q-0.11024-0.44097-0.22048-0.69591-0.11025-0.26183-0.33073-0.40652z"/>
            <path d="m152.82 172.98h3.7483v5.7326q0 0.99219 0.44097 0.99219v2.0946h-4.1892v-1.9844q0.2067-0.10335 0.2756-0.24805 0.0689-0.14469 0.0689-0.37207 0-0.14469-7e-3 -0.24804 0-0.10336-7e-3 -0.23427v-2.7561q0-0.37897-0.0689-0.53055-0.0689-0.15847-0.26182-0.3514zm0.11024-1.9844q0-0.46853 0.27561-0.79237 0.2756-0.33073 0.70279-0.48231 0.4272-0.15848 0.89573-0.15848 0.72347 0 1.2402 0.37207 0.52366 0.36518 0.52366 1.0611 0 0.7028-0.53744 1.068-0.53743 0.36518-1.3367 0.36518-0.73725 0-1.254-0.4203-0.50987-0.42719-0.50987-1.0129z"/>
            <path d="m158.05 179.05v-3.197q0-0.77859 0.17914-1.3298 0.17915-0.55122 0.59256-0.90951 0.41341-0.36518 1.1369-0.55121 0.73036-0.18604 1.8397-0.18604 1.316 0 2.3151 0.24805 1.006 0.24116 1.5434 0.85438v2.3151h-3.0868v-0.55121q0-0.44097-0.0965-0.66146-0.0896-0.22048-0.45475-0.22048-0.26183 0-0.40653 0.13091-0.14469 0.13091-0.19981 0.37896-0.0551 0.24805-0.0551 0.59256v2.7561q0 0.42719 0.0276 0.66835 0.0276 0.23426 0.14469 0.39274 0.12403 0.15158 0.37896 0.15158 0.38585 0 0.52366-0.27561 0.1378-0.2756 0.1378-0.82682v-0.7717h3.0868v2.7561q-0.41341 0.41341-1.0335 0.68901-0.62012 0.27561-1.3229 0.40653-0.69591 0.1378-1.2885 0.1378-0.23427 0-0.43409-0.0207-0.75792-0.0482-1.3436-0.17226-0.57878-0.12402-1.0818-0.42719-0.49609-0.31006-0.79926-0.88883-0.30317-0.58567-0.30317-1.4883z"/>
            <path d="m166.8 179.05v-3.3073q0-1.1782 0.44786-1.8259 0.45475-0.65457 1.316-0.90261 0.86127-0.24805 2.2049-0.24805 1.7019 0 2.7767 0.58566 1.0818 0.57878 1.0818 1.9499v2.7561h-4.52v0.88195q0 0.44097 0.16536 0.66834 0.17226 0.22738 0.40652 0.22738 0.2136 0 0.37207-0.17915 0.15848-0.17914 0.15848-0.49609v-0.66146h3.4175v2.3151q-0.2825 0.28249-0.94396 0.56499-0.65456 0.27561-1.509 0.46164-0.84749 0.18604-1.6261 0.18604-1.2402-0.0551-2.074-0.36518-0.83371-0.31006-1.254-0.94396-0.4203-0.64078-0.4203-1.6674zm3.3073-2.9766h1.3229q0-0.62701-0.1378-0.9164-0.13091-0.29627-0.52365-0.29627t-0.53055 0.29627q-0.13091 0.28939-0.13091 0.9164z"/>
          </g>
        </g>
        <g aria-label="Weigelt">
          <g fill="#414141">
            <path d="m84.526 188.47h4.6302v2.0946q-0.20671 0.0965-0.27561 0.29627-0.0689 0.19982-0.0689 0.48921 0.0069 0.13091 0.0069 0.24115 0.0069 0.11025 0.0069 0.29628l0.44097 2.9766 1.2127-6.3941h2.3151l1.3229 6.3941 0.44097-3.197q0-0.44098-0.07579-0.69591-0.0689-0.26183-0.36518-0.40652v-2.0946h4.079v2.0946q-0.22049 0.22048-0.33073 0.55121t-0.22049 0.88195l-1.6536 8.4887h-3.638l-0.99219-5.7326-1.1024 5.7326h-3.638l-1.4332-8.4887q-0.15158-0.75103-0.66146-1.4332z"/>
            <path d="m99.122 197.73v-3.3073q0-1.1782 0.44786-1.8259 0.45475-0.65457 1.316-0.90261 0.86128-0.24805 2.2049-0.24805 1.7019 0 2.7768 0.58567 1.0818 0.57877 1.0818 1.9499v2.7561h-4.52v0.88195q0 0.44097 0.16537 0.66834 0.17225 0.22738 0.40652 0.22738 0.2136 0 0.37207-0.17914 0.15847-0.17915 0.15847-0.4961v-0.66145h3.4175v2.3151q-0.2825 0.28249-0.94396 0.56499-0.65457 0.27561-1.509 0.46165-0.84749 0.18603-1.6261 0.18603-1.2402-0.0551-2.074-0.36518-0.83371-0.31006-1.254-0.94396-0.4203-0.64078-0.4203-1.6674zm3.3073-2.9766h1.3229q0-0.62701-0.1378-0.9164-0.13092-0.29627-0.52366-0.29627t-0.53054 0.29627q-0.13092 0.28939-0.13092 0.9164z"/>
            <path d="m107.88 191.66h3.7483v5.7326q0 0.99219 0.44097 0.99219v2.0946h-4.1892v-1.9844q0.2067-0.10335 0.27561-0.24805 0.0689-0.14469 0.0689-0.37207 0-0.14469-7e-3 -0.24804 0-0.10336-7e-3 -0.23427v-2.7561q0-0.37896-0.0689-0.53055-0.0689-0.15847-0.26182-0.3514zm0.11024-1.9844q0-0.46853 0.27561-0.79237 0.27561-0.33073 0.7028-0.48231 0.42719-0.15848 0.89572-0.15848 0.72347 0 1.2402 0.37207 0.52366 0.36518 0.52366 1.0611 0 0.7028-0.53744 1.068-0.53743 0.36518-1.3367 0.36518-0.73725 0-1.254-0.4203-0.50987-0.42719-0.50987-1.0129z"/>
            <path d="m112.99 198.17v-3.5278q0-1.006 0.18604-1.6605 0.19292-0.65457 0.74414-1.0404 0.55121-0.38585 1.6054-0.38585 0.68902 0 1.1713 0.11025 0.48231 0.11024 0.92329 0.55121v-0.55121h3.7483v1.9844q-0.44098 0.29628-0.44098 0.99219v6.1736q0 1.0473-0.23426 1.6881-0.23427 0.64768-0.68902 0.9784-0.44786 0.33073-1.0886 0.46165-0.64079 0.13091-1.6261 0.17914-0.23427 0.0138-0.35829 0.0138-0.65457 0-1.4125-0.15847-0.75792-0.15159-1.3918-0.41341-0.62701-0.25494-0.91639-0.54433v-2.0946h3.197q0 0.3514 0.0276 0.54432 0.0276 0.19982 0.1447 0.32384 0.12402 0.12402 0.37896 0.12402 0.28249 0 0.42719-0.0827 0.15158-0.0758 0.19292-0.22049 0.0482-0.14469 0.0482-0.39274 0-0.13091-7e-3 -0.22048 0-0.0827 0-0.18604v-0.7717q-0.88195 0.66146-1.9844 0.66146-1.2954 0-1.9706-0.67524t-0.67524-1.8604zm4.6302-0.11024v-3.9688q-0.28939-0.14469-0.53744-0.14469-0.67524 0-0.67524 0.91639v1.9844q0 0.47542 0.0482 0.7717 0.0551 0.28938 0.19293 0.42719 0.1378 0.1378 0.37896 0.1378 0.22738 0 0.59256-0.12402z"/>
            <path d="m122.41 197.73v-3.3073q0-1.1782 0.44786-1.8259 0.45476-0.65457 1.316-0.90261 0.86127-0.24805 2.2049-0.24805 1.7019 0 2.7767 0.58567 1.0818 0.57877 1.0818 1.9499v2.7561h-4.52v0.88195q0 0.44097 0.16537 0.66834 0.17225 0.22738 0.40652 0.22738 0.21359 0 0.37207-0.17914 0.15847-0.17915 0.15847-0.4961v-0.66145h3.4175v2.3151q-0.2825 0.28249-0.94395 0.56499-0.65457 0.27561-1.509 0.46165-0.8475 0.18603-1.6261 0.18603-1.2402-0.0551-2.0739-0.36518-0.83372-0.31006-1.254-0.94396-0.4203-0.64078-0.4203-1.6674zm3.3073-2.9766h1.3229q0-0.62701-0.13781-0.9164-0.13091-0.29627-0.52365-0.29627t-0.53055 0.29627q-0.13091 0.28939-0.13091 0.9164z"/>
            <path d="m131.16 188.47h3.7483v8.7092q0 0.41341 0.0207 0.64078 0.0207 0.22049 0.11714 0.39963 0.10335 0.17915 0.30316 0.2825v1.9844h-4.1892v-1.9844q0.28939-0.14469 0.36518-0.42719 0.0758-0.28939 0.0758-0.67524v-5.7326q0-0.52366-0.0758-0.7717-0.0689-0.25494-0.36518-0.33073z"/>
            <path d="m135.94 193.65v-1.9844h0.44097v-1.7639l3.4175-0.88194v2.6458h1.1024v1.9844h-1.1024v3.5278q0 0.39274 0.0965 0.66834 0.0965 0.26872 0.33762 0.40652 0.24116 0.13781 0.66835 0.13781v1.9844q-0.7717 0.22049-2.2049 0.22049-0.53054 0-0.97151-0.16537-0.43409-0.16536-0.72347-0.45475-0.28939-0.28939-0.45476-0.72347-0.16536-0.44097-0.16536-0.97152v-4.6302z"/>
          </g>
        </g>
      </g>
    </g>
    <rect x="157.77" y="184.19" width="5.722e-6" height=".84313" fill="#3ef100" stroke-width=".26458"/>
  </g>
  <metadata>
  </metadata>
</svg>
